<?xml version="1.0" encoding="UTF-8" standalone="no"?>
<svg xmlns="http://www.w3.org/2000/svg" xmlns:xlink="http://www.w3.org/1999/xlink" version="1.1" viewBox="0 0 1230 700" height="700" width="1230">
	<defs id="defs1375">
		<linearGradient id="shadow-strong">
			<stop offset="0" style="stop-color:#000000;stop-opacity:0.1882353" />
			<stop offset="1" style="stop-color:#000000;stop-opacity:0" />
		</linearGradient>
		<linearGradient id="shadow-weak">
			<stop offset="0" style="stop-color:#000000;stop-opacity:0.1254902" />
			<stop offset="1" style="stop-color:#000000;stop-opacity:0" />
		</linearGradient>
		<linearGradient id="level-meter-grad">
			<stop offset="0" style="stop-color:#526db0;stop-opacity:1" />
			<stop offset="1" style="stop-color:#3055a4;stop-opacity:1" />
		</linearGradient>

		<linearGradient gradientUnits="userSpaceOnUse" y2="0" x2="15" y1="280" x1="15" id="linearGradient1320" xlink:href="#level-meter-grad" />
		<linearGradient gradientUnits="userSpaceOnUse" y2="0" x2="15" y1="300" x1="15" id="linearGradient894" xlink:href="#level-meter-grad" />
		<linearGradient gradientUnits="userSpaceOnUse" y2="26" x2="0" y1="20" x1="0" id="linearGradient1017" xlink:href="#shadow-weak" />
		<linearGradient gradientUnits="userSpaceOnUse" y2="8" x2="0" y1="0" x1="0" id="linearGradient1129" xlink:href="#shadow-weak" />
		<linearGradient gradientUnits="userSpaceOnUse" y2="0" x2="6" y1="0" x1="0" id="linearGradient1146" xlink:href="#shadow-weak" />
		<linearGradient gradientUnits="userSpaceOnUse" y2="0" x2="219" y1="0" x1="225" id="linearGradient1166" xlink:href="#shadow-weak" />
		<linearGradient gradientUnits="userSpaceOnUse" y2="8" x2="0" y1="0" x1="0" id="linearGradient1402" xlink:href="#shadow-weak" />
		<linearGradient gradientUnits="userSpaceOnUse" y2="168" x2="0" y1="160" x1="0" id="linearGradient1136" xlink:href="#shadow-strong" />
		<linearGradient gradientUnits="userSpaceOnUse" y2="160" x2="6" y1="160" x1="0" id="linearGradient1156" xlink:href="#shadow-strong" />
		<linearGradient gradientUnits="userSpaceOnUse" y2="160" x2="219" y1="160" x1="225" id="linearGradient1170" xlink:href="#shadow-strong" />
		<linearGradient gradientUnits="userSpaceOnUse" y2="0" x2="215" y1="0" x1="225" id="linearGradient1408" xlink:href="#shadow-strong" />
	</defs>

	<style type="text/css">
		.light-dial { --center-color: #33343b; }
		.dark-dial { --center-color: #1b1d23; }

		@keyframes meter-bg-kf {
			from { height: 0px; }
			to { height: 300px; }
		}

		.dry { --section-offset: 0s; }
		.predelay { --section-offset: 0.15s; }
		.erly-refl { --section-offset: 0.45s; }
		.late-rev { --section-offset: 0.60s; }

		.meter-bg.left { --timing-offset: 0s; }
		.meter-bg.right { --timing-offset: 0.15s; }

		.meter-bg {
			animation-name: meter-bg-kf;
			animation-duration: 0.45s;
			animation-timing-function: cubic-bezier(0.47, 0, 0.745, 0.715);
			animation-delay: calc(var(--timing-offset) + var(--section-offset));
			animation-fill-mode: both;

			fill: #1b1d23;
		}

		@keyframes meter-gain-kf {
			from { opacity: 0%; }
			to { opacity: 100%; }
		}

		.meter-gain {
			animation-name: meter-gain-kf;
			animation-duration: 0.75s;
			animation-timing-function: cubic-bezier(0.47, 0, 0.745, 0.715);
			animation-delay: calc(0.6s + var(--section-offset));
			animation-fill-mode: both;
		}

		@keyframes mod-visual-kf {
			from { transform: translateY(50px) scaleY(0) translateY(-50px); }
			to { transform: translateY(50px) scaleY(1) translateY(-50px); }
		}

		.mod-visual > rect {
			animation-name: mod-visual-kf;
			animation-duration: 0.25s;
			animation-timing-function: cubic-bezier(0.47, 0, 0.745, 0.715);
			animation-fill-mode: both;
			animation-delay: calc(0.65s + 0.04s * var(--child-num) + var(--section-offset));
		}

		.mod-visual > rect:nth-child(1) {--child-num: 1;}
		.mod-visual > rect:nth-child(2) {--child-num: 2;}
		.mod-visual > rect:nth-child(3) {--child-num: 3;}
		.mod-visual > rect:nth-child(4) {--child-num: 4;}
		.mod-visual > rect:nth-child(5) {--child-num: 5;}

		@keyframes global-meter-bg-kf {
			from { height: 0; }
			to { height: 280px; }
		}

		.global-meter-bg {
			animation-name: global-meter-bg-kf;
			animation-duration: 0.45s;
			animation-timing-function: cubic-bezier(0.47, 0, 0.745, 0.715);
			animation-fill-mode: both;
			animation-delay: 0.9s;
		}
	</style>

	<symbol id="dial-big" viewBox="-25 -25 50 50">
		<path fill="#1b1d23" d="m -16.970563,16.970563 a 24,24 0 0 1 0,-33.941126 24,24 0 0 1 33.941126,0 24,24 0 0 1 0,33.941126 L 0,0 Z" />
		<path style="fill:#43444b;stroke:#b6bfcc;stroke-width:1;stroke-linecap:square" d="M -16.970563,16.970563 A 24,24 0 0 1 -22.173109,-9.1844027 24,24 0 0 1 4.7076744e-7,-24 L 0,0 Z" />
		<circle r="20" cy="0" cx="0" style="fill:var(--center-color);stroke:#b6bfcc;stroke-width:1;stroke-linecap:square" />
		<rect ry="0.5" rx="0.5" y="-23" x="-0.5" height="21.5" width="1" style="fill:#b6bfcc;stroke:var(--center-color);stroke-width:4;stroke-linecap:square;paint-order:markers stroke fill" />
	</symbol>

	<symbol id="dial-small" viewBox="-25 -25 50 50">
		<path fill="#1b1d23" d="m -14.142136,14.142135 a 20,20 0 0 1 0,-28.284271 20,20 0 0 1 28.284272,0 20,20 0 0 1 0,28.284272 L 0,0 Z"/>
		<path style="fill:#43444b;stroke:#b6bfcc;stroke-width:0.8333333;stroke-linecap:square" d="M -14.142136,14.142135 A 20,20 0 0 1 -18.477591,-7.6536689 20,20 0 0 1 3.923062e-7,-20 L 0,0 Z" />
		<circle style="fill:var(--center-color);stroke:#b6bfcc;stroke-width:0.833" cx="0" cy="0" r="16.667" />
		<rect style="fill:#b6bfcc;stroke:var(--center-color);stroke-width:3.3333;paint-order:markers stroke fill" width="0.833" height="17.917" x="-0.41666666" y="-19.166666" rx="0.5" ry="0.5"/>
	</symbol>

	<g font-family="Roboto">
		<rect height="100%" width="100%" fill="#101014"/>
		<rect rx="1" ry="1"  y="308" x="0" height="2" width="1175" fill="#b6bfcc" fill-opacity="0.50196078">
			<animate attributeName="width" dur="3s"
				values="0;0;1175;1175"
				keyTimes="0;0.0;0.5;1"
				keySplines="0 0 0 0; 0.42 0 0.58 1; 0 0 0 0" calcMode="spline"/>
		</rect>

		<use id="mix-dial" class="dark-dial" xlink:href="#dial-small" transform="translate(1205,323.5)" x="-25" y="-25" width="50" height="50"/>

		<g id="global-lvl-meters" transform="translate(1175,10)">
			<rect class="global-meter-bg" fill="#33343b" width="5" height="280" x="15" y="0" rx="1" ry="1" />
			<rect class="global-meter-bg" fill="#33343b" width="5" height="280" x="22" y="0" rx="1" ry="1" />
			<rect class="global-meter-bg" fill="#33343b" width="5" height="280" x="33" y="0" rx="1" ry="1" />
			<rect class="global-meter-bg" fill="#33343b" width="5" height="280" x="40" y="0" rx="1" ry="1" />

			<rect fill="url(#linearGradient1320)" width="5" height="213" x="22" y="67" rx="1" ry="1">
				<animate attributeName="height" dur="3s"
					values="0;0;213;213"
					keyTimes="0;0.45;0.60;1"
					keySplines="0 0 0 0; 0.47 0 0.745 0.715; 0 0 0 0" calcMode="spline"/>
				<animate attributeName="y" dur="3s"
					values="280;280;67;67"
					keyTimes="0;0.45;0.60;1"
					keySplines="0 0 0 0; 0.47 0 0.745 0.715; 0 0 0 0" calcMode="spline"/>
			</rect>
			<rect fill="url(#linearGradient1320)" width="5" height="147" x="15" y="133" rx="1" ry="1">
				<animate attributeName="height" dur="3s"
					values="0;0;147;147"
					keyTimes="0;0.45;0.60;1"
					keySplines="0 0 0 0; 0.47 0 0.745 0.715; 0 0 0 0" calcMode="spline"/>
				<animate attributeName="y" dur="3s"
					values="280;280;133;133"
					keyTimes="0;0.45;0.60;1"
					keySplines="0 0 0 0; 0.47 0 0.745 0.715; 0 0 0 0" calcMode="spline"/>
			</rect>
			<rect fill="url(#linearGradient1320)" width="5" height="175" x="40" y="105" rx="1" ry="1">
				<animate attributeName="height" dur="3s"
					values="0;0;175;175"
					keyTimes="0;0.45;0.60;1"
					keySplines="0 0 0 0; 0.47 0 0.745 0.715; 0 0 0 0" calcMode="spline"/>
				<animate attributeName="y" dur="3s"
					values="280;280;105;105"
					keyTimes="0;0.45;0.60;1"
					keySplines="0 0 0 0; 0.47 0 0.745 0.715; 0 0 0 0" calcMode="spline"/>
			</rect>
			<rect fill="url(#linearGradient1320)" width="5" height="167" x="33" y="113" rx="1" ry="1">
				<animate attributeName="height" dur="3s"
					values="0;0;167;167"
					keyTimes="0;0.45;0.60;1"
					keySplines="0 0 0 0; 0.47 0 0.745 0.715; 0 0 0 0" calcMode="spline"/>
				<animate attributeName="y" dur="3s"
					values="280;280;113;113"
					keyTimes="0;0.45;0.60;1"
					keySplines="0 0 0 0; 0.47 0 0.745 0.715; 0 0 0 0" calcMode="spline"/>
			</rect>
		</g>

		<g id="seeds" transform="translate(625,7.3177083)" style="fill:#c1c1c1;font-weight:300;font-size:18.666666px">
			<text x="0" y="330">Seeds</text>
			<text style="text-align:end;text-anchor:end" x="130.306" y="330">1</text>
			<text style="text-align:end;text-anchor:end" x="205.306" y="330">1</text>
			<text style="text-align:end;text-anchor:end" x="280.306" y="330">1</text>
			<text style="text-align:end;text-anchor:end" x="355.306" y="330">1</text>
			<text style="text-align:end;text-anchor:end" x="505.92319" y="330">Interpolate</text>
		</g>

		<g id="dry-panel" transform="translate(10,350)">
			<rect fill="#32333c" width="60" height="340" x="0" y="0" rx="5" ry="5" />
			<rect fill="#4b4f56" width="60" height="10" x="0" y="0" rx="5" ry="5" />
			<rect fill="#4b4f56" width="60" height="15" x="0" y="5" />
			<text y="17" x="14" style="font-weight:300;font-size:17.333333px;fill:#b6bfcc">DRY</text>

			<g id="dry-lvl" transform="translate(10,30)">
				<path class="meter-gain dry" transform="translate(45,80)" d="M 0,5 -8.660254,0 0,-5 Z" fill="#b3b3b3" />
				<rect class="meter-bg dry left" width="10" x="5" rx="2" ry="2" />
				<rect class="meter-bg dry right" width="10" x="20" rx="2" ry="2" />
				<rect fill="url(#linearGradient894)" width="10" height="173" x="5" y="127" rx="2" ry="2">
					<animate attributeName="height" dur="3s"
						values="0;0;173;173"
						keyTimes="0;0.25;0.4;1"
						keySplines="0 0 0 0; 0.47 0 0.745 0.715; 0 0 0 0" calcMode="spline"/>
					<animate attributeName="y" dur="3s"
						values="300;300;127;127"
						keyTimes="0;0.25;0.4;1"
						keySplines="0 0 0 0; 0.47 0 0.745 0.715; 0 0 0 0" calcMode="spline"/>
				</rect>
				<rect fill="url(#linearGradient894)" width="10" height="240" x="20" y="60" rx="2" ry="2">
					<animate attributeName="height" dur="3s"
						values="0;0;240;240"
						keyTimes="0;0.25;0.45;1"
						keySplines="0 0 0 0; 0.47 0 0.745 0.715; 0 0 0 0" calcMode="spline"/>
					<animate attributeName="y" dur="3s"
						values="300;300;60;60"
						keyTimes="0;0.25;0.45;1"
						keySplines="0 0 0 0; 0.47 0 0.745 0.715; 0 0 0 0" calcMode="spline"/>
				</rect>
			</g>

			<rect fill="url(#linearGradient1017)" width="60" height="6" x="0" y="20" />
		</g>

		<g id="predelay-panel" transform="translate(80,350)">
			<rect fill="#32333c" width="160" height="340" x="0" y="0" rx="5" ry="5" />
			<rect fill="#4b4f56" width="160" height="10" x="0" y="0" rx="5" ry="5" />
			<rect fill="#4b4f56" width="160" height="15" x="0" y="5" />
			<text y="17" x="39" style="font-weight:300;font-size:17.333333px;fill:#b6bfcc">PREDELAY</text>

			<g id="predelay-lvl" transform="translate(110,30)">
				<path class="meter-gain predelay" transform="translate(45,110)" d="M 0,5 -8.660254,0 0,-5 Z" fill="#b3b3b3" />
				<rect class="meter-bg predelay left" fill="#1b1d23" width="10" height="300" x="5" y="0" rx="2" ry="2" />
				<rect class="meter-bg predelay right" fill="#1b1d23" width="10" height="300" x="20" y="0" rx="2" ry="2" />
				<rect fill="url(#linearGradient894)" width="10" height="180" x="5" y="120" rx="2" ry="2">
					<animate attributeName="height" dur="3s"
						values="0;0;180;180"
						keyTimes="0;0.3;0.45;1"
						keySplines="0 0 0 0; 0.47 0 0.745 0.715; 0 0 0 0" calcMode="spline"/>
					<animate attributeName="y" dur="3s"
						values="300;300;120;120"
						keyTimes="0;0.3;0.45;1"
						keySplines="0 0 0 0; 0.47 0 0.745 0.715; 0 0 0 0" calcMode="spline"/>
				</rect>
				<rect fill="url(#linearGradient894)" width="10" height="210" x="20" y="90" rx="2" ry="2">
					<animate attributeName="height" dur="3s"
						values="0;0;210;210"
						keyTimes="0;0.3;0.45;1"
						keySplines="0 0 0 0; 0.47 0 0.745 0.715; 0 0 0 0" calcMode="spline"/>
					<animate attributeName="y" dur="3s"
						values="300;300;90;90"
						keyTimes="0;0.3;0.45;1"
						keySplines="0 0 0 0; 0.47 0 0.745 0.715; 0 0 0 0" calcMode="spline"/>
				</rect>
			</g>

			<g id="crossover-ctrl" transform="translate(60,100)">
				<use class="light-dial" xlink:href="#dial-big" x="-25" y="-25" width="50" height="50"/>
				<text style="font-weight:300;font-size:16px;text-align:center;text-anchor:middle;fill:#b6bfcc"
						x="0" y="40.799999">CROSSOVER</text>
			</g>
			<g id="predelay-ctrl" transform="translate(60,215)">
				<use class="light-dial" xlink:href="#dial-big" x="-25" y="-25" width="50" height="50"/>
				<text style="font-weight:300;font-size:16px;text-align:center;text-anchor:middle;fill:#b6bfcc"
						x="0" y="40.799999">PREDELAY</text>
			</g>

			<rect fill="url(#linearGradient1017)" width="160" height="6" x="0" y="20"/>
		</g>

		<g id="er-panel" transform="translate(250,350)">
			<rect fill="#32333c" width="455" height="340" x="0" y="0" rx="5" ry="5" />
			<rect fill="#4b4f56" width="455" height="10" x="0" y="0" rx="5" ry="5" />
			<rect fill="#4b4f56" width="455" height="15" x="0" y="5" />
			<text style="font-weight:300;font-size:17.333333px;fill:#b6bfcc" x="50" y="17">EARLY REFLECTIONS</text>

			<g id="er-lvl" transform="translate(405,30)">
				<path class="meter-gain erly-refl" transform="translate(45,200)" d="M 0,5 -8.660254,0 0,-5 Z" style="fill:#b3b3b3" />
				<rect class="meter-bg erly-refl left" fill="#1b1d23" width="10" height="300" x="5" y="0" rx="2" ry="2" />
				<rect class="meter-bg erly-refl right" fill="#1b1d23" width="10" height="300" x="20" y="0" rx="2" ry="2" />
				<rect fill="url(#linearGradient894)" width="10" height="90" x="5" y="210" rx="2" ry="2">
					<animate attributeName="height" dur="3s"
						values="0;0;90;90"
						keyTimes="0;0.4;0.55;1"
						keySplines="0 0 0 0; 0.47 0 0.745 0.715; 0 0 0 0" calcMode="spline"/>
					<animate attributeName="y" dur="3s"
						values="300;300;210;210"
						keyTimes="0;0.4;0.55;1"
						keySplines="0 0 0 0; 0.47 0 0.745 0.715; 0 0 0 0" calcMode="spline"/>
				</rect>
				<rect fill="url(#linearGradient894)" width="10" height="100" x="20" y="200" rx="2" ry="2">
					<animate attributeName="height" dur="3s"
						values="0;0;100;100"
						keyTimes="0;0.4;0.55;1"
						keySplines="0 0 0 0; 0.47 0 0.745 0.715; 0 0 0 0" calcMode="spline"/>
					<animate attributeName="y" dur="3s"
						values="300;300;200;200"
						keyTimes="0;0.4;0.55;1"
						keySplines="0 0 0 0; 0.47 0 0.745 0.715; 0 0 0 0" calcMode="spline"/>
				</rect>
			</g>

			<g id="taps-ctrl" transform="translate(47,60)">
				<use class="light-dial" xlink:href="#dial-big" x="-25" y="-25" width="50" height="50"/>
				<text style="font-weight:300;font-size:16px;text-align:center;text-anchor:middle;fill:#b6bfcc"
						x="0" y="40.799999">TAPS</text>
			</g>
			<g id="er-mix-ctrl" transform="translate(47,147)">
				<use class="light-dial" xlink:href="#dial-big" x="-25" y="-25" width="50" height="50"/>
				<text style="font-weight:300;font-size:16px;text-align:center;text-anchor:middle;fill:#b6bfcc"
						x="0" y="40.799999">MIX</text>
			</g>
			<g id="er-length-ctrl" transform="translate(123,60)">
				<use class="light-dial" xlink:href="#dial-big" x="-25" y="-25" width="50" height="50"/>
				<text style="font-weight:300;font-size:16px;text-align:center;text-anchor:middle;fill:#b6bfcc"
						x="0" y="40.799999">LENGTH</text>
			</g>
			<g id="er-decay-ctrl" transform="translate(123,147)">
				<use class="light-dial" xlink:href="#dial-big" x="-25" y="-25" width="50" height="50"/>
				<text style="font-weight:300;font-size:16px;text-align:center;text-anchor:middle;fill:#b6bfcc"
						x="0" y="40.799999">DECAY</text>
			</g>
			<g id="er-eq" transform="translate(10,200)">
				<rect fill="#1b1d23" width="150" height="105" x="0" y="0" rx="5" ry="5" />
				<rect y="24.25" x="0" height="1" width="150" style="fill:#c1c1c1;fill-opacity:0.37647059" />
				<rect ry="1.5" rx="1.5" fill="#c1c1c1" width="136.5" height="3" x="6.75" y="23.25">
					<animate attributeName="width" dur="3s"
						values="0;0;136.5;136.5"
						keyTimes="0;0.35;0.50;1"
						keySplines="0 0 0 0; 0.47 0 0.745 0.715; 0 0 0 0" calcMode="spline"/>
				</rect>
				<rect ry="5" rx="5" y="110" x="0" height="20" width="70" style="fill:#1b1d23" />
				<rect fill="#1b1d23" width="70" height="20" x="80" y="110" rx="5" ry="5" />
				<g style="font-weight:normal;font-size:17.33333px;line-height:20px;text-anchor:middle;fill:#c1c1c1">
					<text x="35" y="126">LOW</text>
					<text x="115" y="126" >HIGH</text>
				</g>
			</g>

			<g id="er-diffus" transform="translate(170,20)">
				<rect fill="#1b1d23" width="225" height="320" x="0" y="0"/>
				<text style="font-weight:300;font-size:17.333333px;fill:#b6bfcc" x="18" y="27">DIFFUSION</text>
				<g id="er-stages-ctrl" transform="translate(65,85)">
					<use class="dark-dial" xlink:href="#dial-big" x="-25" y="-25" width="50" height="50"/>
					<text style="font-weight:300;font-size:16px;text-align:center;text-anchor:middle;fill:#b6bfcc"
							x="0" y="40.799999">STAGES</text>
				</g>
				<g id="er-feedback-ctrl" transform="translate(160,85)">
					<use class="dark-dial" xlink:href="#dial-big" x="-25" y="-25" width="50" height="50"/>
					<text style="font-weight:300;font-size:16px;text-align:center;text-anchor:middle;fill:#b6bfcc"
							x="0" y="40.799999">FEEDBACK</text>
				</g>
				<g id="g1096">
					<g id="er-delay-ctrl" transform="translate(83,200)">
						<use class="dark-dial" xlink:href="#dial-small" x="-25" y="-25" width="50" height="50"/>
						<text style="font-weight:300;font-size:15px;text-align:center;text-anchor:middle;fill:#b6bfcc"
								x="0" y="36">DELAY</text>
					</g>
					<g id="er-rate-ctrl" transform="translate(185,200)">
						<use class="dark-dial" xlink:href="#dial-small" x="-25" y="-25" width="50" height="50"/>
						<text style="font-weight:300;font-size:15px;text-align:center;text-anchor:middle;fill:#b6bfcc"
								x="0" y="36">RATE</text>
					</g>
					<g id="er-depth-ctrl" transform="translate(185,270)">
						<use class="dark-dial" xlink:href="#dial-small" x="-25" y="-25" width="50" height="50"/>
						<text style="font-weight:300;font-size:15px;text-align:center;text-anchor:middle;fill:#b6bfcc"
								x="0" y="36">DEPTH</text>
					</g>
					<g class="mod-visual erly-refl" transform="translate(25,260)" fill="#8c2e2e">
						<rect x="0" y="0" width="4.8" height="50" />
						<rect x="25" y="24.5" width="4.8" height="25.5" />
						<rect x="50" y="37" width="4.8" height="13" />
						<rect x="75" y="43.25" width="4.8" height="6.75" />
						<rect x="100" y="46.375" width="4.8" height="3.625" />
					</g>
				</g>
				<g id="er-diffus-shadows">
					<rect fill="url(#linearGradient1129)" width="225" height="8" x="0" y="0" />
					<rect fill="url(#linearGradient1146)" width="6" height="160" x="0" y="0" />
					<rect fill="url(#linearGradient1136)" width="225" height="8" x="0" y="160" />
					<rect fill="url(#linearGradient1156)" width="6" height="160" x="0" y="160" />
					<rect fill="url(#linearGradient1166)" width="6" height="160" x="219" y="0" />
					<rect fill="url(#linearGradient1170)" width="6" height="160" x="219" y="160" />
				</g>
			</g>

			<rect fill="url(#linearGradient1017)" width="170" height="6" x="0" y="20" />
			<rect fill="url(#linearGradient1017)" width="60" height="6" x="395" y="20" />
		</g>

		<g id="lr-panel" transform="translate(715,350)">
			<rect ry="5" rx="5" y="0" x="0" height="340" width="505" fill="#32333c" />
			<rect ry="5" rx="5" y="0" x="0" height="10" width="505" fill="#4b4f56" />
			<rect y="5" x="0" height="15" width="505" fill="#4b4f56" />
			<text style="font-weight:300;font-size:17.333333px;fill:#b6bfcc" x="50" y="17">LATE REVERBERATIONS</text>

			<g id="lr-lvl" transform="translate(455,30)">
				<path class="meter-gain late-rev" fill="#b3b3b3" d="M 0,5 -8.660254,0 0,-5 Z" transform="translate(45,150)" />
				<rect class="meter-bg late-rev left" ry="2" rx="2" y="0" x="5" height="300" width="10" fill="#1b1d23" />
				<rect class="meter-bg late-rev right" ry="2" rx="2" y="0" x="20" height="300" width="10" fill="#1b1d23" />
				<rect ry="2" rx="2" y="120" x="5" height="180" width="10" fill="url(#linearGradient894)">
					<animate attributeName="height" dur="3s"
						values="0;0;180;180"
						keyTimes="0;0.45;0.6;1"
						keySplines="0 0 0 0; 0.47 0 0.745 0.715; 0 0 0 0" calcMode="spline"/>
					<animate attributeName="y" dur="3s"
						values="300;300;120;120"
						keyTimes="0;0.45;0.6;1"
						keySplines="0 0 0 0; 0.47 0 0.745 0.715; 0 0 0 0" calcMode="spline"/>
				</rect>
				<rect ry="2" rx="2" y="135" x="20" height="165" width="10" fill="url(#linearGradient894)">
					<animate attributeName="height" dur="3s"
						values="0;0;165;165"
						keyTimes="0;0.45;0.6;1"
						keySplines="0 0 0 0; 0.47 0 0.745 0.715; 0 0 0 0" calcMode="spline"/>
					<animate attributeName="y" dur="3s"
						values="300;300;135;135"
						keyTimes="0;0.45;0.6;1"
						keySplines="0 0 0 0; 0.47 0 0.745 0.715; 0 0 0 0" calcMode="spline"/>
				</rect>
			</g>

			<g id="lr-delaylines-ctrl" transform="translate(373,65)">
				<use class="light-dial" xlink:href="#dial-big" x="-25" y="-25" width="50" height="50"/>
				<text style="font-weight:300;font-size:16px;text-align:center;text-anchor:middle;fill:#b6bfcc"
						x="0" y="40.799999">DELAYLINES</text>
			</g>
			<g id="lr-crossmix-ctrl" transform="translate(373,148)">
				<use class="light-dial" xlink:href="#dial-big" x="-25" y="-25" width="50" height="50"/>
				<text style="font-weight:300;font-size:16px;text-align:center;text-anchor:middle;fill:#b6bfcc"
						x="0" y="40.799999">CROSSMIX</text>
			</g>
			<g id="lr-eq" transform="translate(295,200)">
				<rect ry="5" rx="5" y="0" x="0" height="105" width="150" fill="#1b1d23" />
				<rect style="fill:#c1c1c1;fill-opacity:0.37647059" width="150" height="1" x="0" y="24.25" />
				<rect fill="#c1c1c1" width="136.5" height="3" x="6.75" y="23.25" rx="1.5" ry="1.5">
					<animate attributeName="width" dur="3s"
						values="0;0;136.5;136.5"
						keyTimes="0;0.4;0.55;1"
						keySplines="0 0 0 0; 0.47 0 0.745 0.715; 0 0 0 0" calcMode="spline"/>
				</rect>
				<rect fill="#1b1d23" width="43.333332" height="20" x="0" y="110" rx="5" ry="5" />
				<rect fill="#1b1d23" width="43.333332" height="20" x="53.333332" y="110" rx="5" ry="5" />
				<rect fill="#1b1d23" width="43.333332" height="20" x="106.66666" y="110" rx="5" ry="5" />
				<g style="font-weight:normal;font-size:17.33333015px;line-height:20px;text-anchor:middle;fill:#c1c1c1">
					<text x="21.666666" y="126">LS</text>
					<text x="75" y="126">HS</text>
					<text x="128.33333" y="126">HC</text>
				</g>
			</g>

			<g id="lr-delay" transform="translate(0,20)">
				<rect y="0" x="0" height="150" width="275" fill="#1b1d23" />
				<g id="lr-delay-feedback-ctrl" transform="translate(50,30)">
					<use class="dark-dial" xlink:href="#dial-small" x="-25" y="-25" width="50" height="50"/>
					<text style="font-weight:300;font-size:15px;text-align:center;text-anchor:middle;fill:#b6bfcc"
							x="0" y="36">FEEDBACK</text>
				</g>
				<g id="lr-delay-delay-ctrl" transform="translate(119,30)">
					<use class="dark-dial" xlink:href="#dial-small" x="-25" y="-25" width="50" height="50"/>
					<text style="font-weight:300;font-size:15px;text-align:center;text-anchor:middle;fill:#b6bfcc"
							x="0" y="36">DELAY</text>
				</g>
				<g id="lr-delay-rate-ctrl" transform="translate(186,30)">
					<use class="dark-dial" xlink:href="#dial-small" x="-25" y="-25" width="50" height="50"/>
					<text style="font-weight:300;font-size:15px;text-align:center;text-anchor:middle;fill:#b6bfcc"
							y="36" x="0">RATE</text>
				</g>
				<g id="lr-delay-depth-ctrl" transform="translate(186,100)">
					<use class="dark-dial" xlink:href="#dial-small" x="-25" y="-25" width="50" height="50"/>
					<text style="font-weight:300;font-size:15px;text-align:center;text-anchor:middle;fill:#b6bfcc"
							x="0" y="36">DEPTH</text>
				</g>
				<g class="mod-visual late-rev" transform="translate(25,90)" fill="#8c2e2e">
					<rect x="0" y="0" width="4.8" height="50" />
					<rect x="25" y="24.5" width="4.8" height="25.5" />
					<rect x="50" y="37" width="4.8" height="13" />
					<rect x="75" y="43.25" width="4.8" height="6.75" />
					<rect x="100" y="46.375" width="4.8" height="3.625" />
				</g>
				<g id="lr-delay-shadows">
					<rect fill="url(#linearGradient1402)" width="275" height="8" x="0" y="0" />
					<rect fill="url(#linearGradient1408)" width="10" height="150" x="215" y="0" />
				</g>
				<text style="font-weight:300;font-size:17.333333px;fill:#b6bfcc" transform="rotate(-90)" x="-98" y="255">DELAY</text>
			</g>

			<g id="lr-diffus" transform="translate(0,190)">
				<rect fill="#1b1d23" width="275" height="150" x="0" y="0" />
				<g transform="translate(50,30)">
					<use class="dark-dial" xlink:href="#dial-small" x="-25" y="-25" width="50" height="50"/>
					<text style="font-weight:300;font-size:15px;text-align:center;text-anchor:middle;fill:#b6bfcc"
							x="0" y="36">FEEDBACK</text>
				</g>
				<g id="g1497" transform="translate(186,30)">
					<use class="dark-dial" xlink:href="#dial-small" x="-25" y="-25" width="50" height="50"/>
					<text style="font-weight:300;font-size:15px;text-align:center;text-anchor:middle;fill:#b6bfcc"
							x="0" y="36">RATE</text>
				</g>
				<g id="g1547" transform="translate(119,30)">
					<use class="dark-dial" xlink:href="#dial-small" x="-25" y="-25" width="50" height="50"/>
					<text style="font-weight:300;font-size:15px;text-align:center;text-anchor:middle;fill:#b6bfcc"
							x="0" y="36">DELAY</text>
				</g>
				<g id="g1511" transform="translate(186,100)">
					<use class="dark-dial" xlink:href="#dial-small" x="-25" y="-25" width="50" height="50"/>
					<text style="font-weight:300;font-size:15px;text-align:center;text-anchor:middle;fill:#b6bfcc"
							x="0" y="36">DEPTH</text>
				</g>
				<g class="mod-visual late-rev" transform="translate(25,90)" fill="#8c2e2e">
					<rect x="0" y="0" width="4.8" height="50" />
					<rect x="25" y="24.5" width="4.8" height="25.5" />
					<rect x="50" y="37" width="4.8" height="13" />
					<rect x="75" y="43.25" width="4.8" height="6.75" />
					<rect x="100" y="46.375" width="4.8" height="3.625" />
				</g>
				<g id="lr-diffus-shadows">
					<rect fill="url(#linearGradient1402)" width="275" height="8" x="0" y="0" />
					<rect fill="url(#linearGradient1408)" width="10" height="150" x="215" y="0" />
				</g>
				<text style="font-weight:300;font-size:17.333333px;fill:#b6bfcc" x="-130" y="255" transform="rotate(-90)">DIFFUSION</text>
				<text style="font-weight:300;font-size:17.333333px;fill:#b6bfcc;dominant-baseline:middle;text-anchor:middle" x="250" y="25">6</text>
			</g>

			<text style="font-weight:normal;font-size:17.333333px" x="410" y="17">
				<animate attributeName="fill" dur="3s" fill="freeze"
					values="#1b1d23;#1b1d23;#b6bfcc;#b6bfcc"
					keyTimes="0;0.35;0.5;1"
					keySplines="0 0 0 0; 0.47 0 0.745 0.715; 0 0 0 0" calcMode="spline"/>
				PRE
			</text>
			<text style="font-weight:normal;font-size:17.333333px;fill:#1b1d23" x="452" y="17">POST</text>

			<rect fill="url(#linearGradient1017)" width="229.5" height="6" x="275.5" y="20" />
		</g>
	</g>
</svg>
