<?xml version="1.0" encoding="UTF-8" standalone="no"?>
<!-- Created with Inkscape (http://www.inkscape.org/) -->

<svg
   xmlns:dc="http://purl.org/dc/elements/1.1/"
   xmlns:cc="http://creativecommons.org/ns#"
   xmlns:rdf="http://www.w3.org/1999/02/22-rdf-syntax-ns#"
   xmlns:svg="http://www.w3.org/2000/svg"
   xmlns="http://www.w3.org/2000/svg"
   xmlns:sodipodi="http://sodipodi.sourceforge.net/DTD/sodipodi-0.dtd"
   xmlns:inkscape="http://www.inkscape.org/namespaces/inkscape"
   width="1280mm"
   height="300mm"
   viewBox="0 0 1280 300"
   version="1.1"
   id="svg8"
   sodipodi:docname="logo full.svg"
   inkscape:version="0.92.4 (5da689c313, 2019-01-14)"
   inkscape:export-filename="/home/dougal/bitmap.png"
   inkscape:export-xdpi="108.373"
   inkscape:export-ydpi="108.373">
  <defs
     id="defs2" />
  <sodipodi:namedview
     id="base"
     pagecolor="#ffffff"
     bordercolor="#666666"
     borderopacity="1.0"
     inkscape:pageopacity="0.0"
     inkscape:pageshadow="2"
     inkscape:zoom="0.175"
     inkscape:cx="2231.9882"
     inkscape:cy="-257.89308"
     inkscape:document-units="mm"
     inkscape:current-layer="layer1"
     showgrid="false"
     inkscape:window-width="1850"
     inkscape:window-height="1029"
     inkscape:window-x="70"
     inkscape:window-y="25"
     inkscape:window-maximized="1" />
  <metadata
     id="metadata5">
    <rdf:RDF>
      <cc:Work
         rdf:about="">
        <dc:format>image/svg+xml</dc:format>
        <dc:type
           rdf:resource="http://purl.org/dc/dcmitype/StillImage" />
        <dc:title />
      </cc:Work>
    </rdf:RDF>
  </metadata>
  <g
     inkscape:label="Layer 1"
     inkscape:groupmode="layer"
     id="layer1"
     transform="translate(0,3)">
    <g
       id="g1222"
       transform="matrix(-0.61376916,-1.0630838,1.0630782,-0.6137711,106.55252,389.34479)"
       inkscape:export-xdpi="108.373"
       inkscape:export-ydpi="108.373"
       style="fill:#fffffc;fill-opacity:1">
      <path
         sodipodi:nodetypes="ccssccccccsccssscscc"
         inkscape:connector-curvature="0"
         id="path842"
         d="m 25.779684,184.91427 c 0,0 -2.06975,-1.03668 -4.101039,1.40086 -2.03129,2.43755 -1.840483,5.5563 -1.586572,6.4196 0.253912,0.8633 2.183636,4.51962 3.300846,5.53527 1.117209,1.01564 3.056704,0.28111 4.478607,1.44909 1.421903,1.168 2.021519,2.20722 2.529341,4.34008 0.507823,2.13285 -1.704505,3.56347 -2.814058,4.74379 -0.786379,0.92895 3.014635,-1.29676 4.894637,-0.89921 1.269554,0.25391 1.728089,-0.34061 3.962506,2.35086 1.878942,-0.96487 0,0 1.878942,-0.96487 -3.116818,-1.20645 1.66937,-9.32926 5.88775,-7.05257 2.79058,1.50609 2.280534,3.48321 2.280534,3.48321 0,0 0.815505,-2.64966 -0.14933,-4.02078 -0.964863,-1.37112 -2.318995,-1.40342 -4.350285,-1.40342 -2.03129,0 -6.133103,-5.8229 -4.476051,-8.90177 0.98838,-1.83644 -3.468505,-1.47417 -3.042271,-0.55244 0.811629,1.75516 0.957644,4.68429 -0.616599,5.34446 -1.970152,0.53071 -8.53106,0.58233 -11.043331,-4.55659 -2.600656,-5.31971 2.966403,-6.71557 2.966403,-6.71557 z"
         style="fill:#fffffc;fill-opacity:1;stroke:none;stroke-width:0.2843805px;stroke-linecap:butt;stroke-linejoin:miter;stroke-opacity:1" />
      <path
         sodipodi:nodetypes="ccssccccccsccssscscc"
         inkscape:connector-curvature="0"
         id="path842-3"
         d="m 23.337616,219.7894 c 0,0 -2.887877,1.0628 -2.373563,5.24927 0.514324,4.18649 3.710611,6.8391 4.778334,7.37847 1.067723,0.53938 6.367151,1.99575 8.367987,1.83703 2.000834,-0.15877 3.053549,-2.70681 5.479247,-3.02222 2.42572,-0.31541 3.978486,0.049 6.50768,1.49733 2.529183,1.44836 1.902883,4.89417 2.037331,7.04345 0.184852,1.60735 1.486004,-4.10161 3.581806,-5.562 1.401169,-0.99943 1.242158,-1.98476 5.88367,-1.70155 0.774381,-2.69894 0,0 0.774381,-2.69894 -4.005077,1.92313 -7.52303,-10.10605 -1.478435,-12.12307 3.998662,-1.33432 5.450818,0.95887 5.450818,0.95887 0,0 -1.82606,-3.20114 -4.032787,-3.51352 -2.206751,-0.31235 -3.470092,0.97067 -5.318232,2.9394 -1.848141,1.96871 -11.22365,0.64629 -12.70003,-3.76097 -0.880612,-2.6288 -4.584532,2.02041 -3.303387,2.44593 2.439538,0.81026 5.411291,3.33378 4.618822,5.46017 -1.278149,2.39232 -7.197472,8.79811 -14.463846,6.55742 -7.522012,-2.31952 -3.809768,-8.9851 -3.809768,-8.9851 z"
         style="fill:#fffffc;fill-opacity:1;stroke:none;stroke-width:0.37803805px;stroke-linecap:butt;stroke-linejoin:miter;stroke-opacity:1" />
      <path
         sodipodi:nodetypes="ccssccccccsccssscscc"
         inkscape:connector-curvature="0"
         id="path842-6"
         d="m 51.515135,256.70682 c 0,0 -2.485722,4.12832 2.245372,8.73767 4.731106,4.60937 11.234745,4.71684 13.067477,4.32923 1.83273,-0.3876 9.732799,-3.80241 12.0211,-5.95718 2.288274,-2.15475 1.076891,-6.29866 3.730534,-9.06121 2.653679,-2.76255 4.907345,-3.83926 9.415984,-4.5489 4.508614,-0.70962 7.120661,4.1129 9.391238,6.60627 1.80105,1.78206 -2.204694,-6.46609 -1.07609,-10.30376 0.73196,-2.59391 -0.427951,-3.64157 5.51879,-7.84451 -1.69921,-4.05542 0,0 -1.69921,-4.05542 -3.00711,6.27405 -19.092994,-4.97076 -13.686808,-13.35832 3.576327,-5.5486 7.597413,-4.17084 7.597413,-4.17084 0,0 -5.367604,-2.1203 -8.369064,-0.33918 -3.001471,1.78121 -3.287105,4.58641 -3.615034,8.80228 -0.327923,4.21585 -13.075294,11.78897 -19.197845,7.85276 -3.651893,-2.3478 -3.619524,6.96077 -1.637698,6.22495 3.773791,-1.40117 9.87665,-1.23135 10.992665,2.1425 0.783409,4.17465 -0.168625,17.79987 -11.239811,22.18437 C 53.51347,268.4863 51.51515,256.70675 51.51515,256.70675 Z"
         style="fill:#fffffc;fill-opacity:1;stroke:none;stroke-width:0.59200257px;stroke-linecap:butt;stroke-linejoin:miter;stroke-opacity:1" />
      <path
         inkscape:transform-center-y="9.1486542"
         inkscape:transform-center-x="12.044693"
         sodipodi:nodetypes="ccssccccccsccssscscc"
         inkscape:connector-curvature="0"
         id="path842-6-7"
         d="m 123.9937,263.27623 c 0,0 2.1162,5.99709 10.78161,5.05021 8.66544,-0.9469 14.23547,-7.47836 15.37966,-9.66985 1.14415,-2.19143 4.30042,-13.10212 4.02785,-17.24117 -0.27258,-4.13902 -5.50886,-6.38497 -6.09349,-11.40631 -0.58465,-5.02141 0.21133,-8.22 3.27436,-13.40634 3.06306,-5.18633 10.16628,-3.79669 14.61136,-4.01503 3.32664,-0.33746 -8.43462,-3.18435 -11.39438,-7.55565 -2.02645,-2.92318 -4.06701,-2.62183 -3.35324,-12.20545 -5.55577,-1.67497 0,0 -5.55577,-1.67497 3.8631,8.32955 -21.09199,15.26615 -25.09271,2.71937 -2.64659,-8.30002 2.13238,-11.23732 2.13238,-11.23732 0,0 -6.66555,3.68484 -7.37219,8.23627 -0.70656,4.55153 1.90976,7.19765 5.92685,11.0713 4.01707,3.8736 1.0247,23.21104 -8.12364,26.13983 -5.45666,1.74694 4.04815,9.52971 4.96296,6.89407 1.74196,-5.01878 7.03897,-11.08987 11.41113,-9.39339 4.90822,2.70749 17.98153,15.11693 13.15,30.07049 -5.0015,15.47965 -18.67279,7.62387 -18.67279,7.62387 z"
         style="fill:#fffffc;fill-opacity:1;stroke:none;stroke-width:0.78126848px;stroke-linecap:butt;stroke-linejoin:miter;stroke-opacity:1" />
      <path
         inkscape:transform-center-y="25.72495"
         inkscape:transform-center-x="11.525116"
         sodipodi:nodetypes="ccssccccccsccssscscc"
         inkscape:connector-curvature="0"
         id="path842-6-7-5"
         d="m 196.95431,201.19204 c 0,0 8.04797,4.18843 16.15644,-5.24037 8.10852,-9.4288 7.55043,-21.66231 6.60793,-25.06085 -0.94248,-3.39857 -8.28247,-17.84442 -12.59887,-21.89251 -4.31641,-4.04804 -11.96154,-1.28752 -17.4628,-5.95109 -5.50117,-4.66367 -7.78778,-8.77263 -9.64814,-17.16186 -1.86034,-8.38917 6.89636,-13.86101 11.31628,-18.41901 3.13817,-3.59259 -11.89272,4.89848 -19.23591,3.22621 -4.95974,-1.07229 -6.79283,1.22971 -15.38549,-9.45358 -7.42188,3.66689 0,0 -7.42188,3.66689 12.1409,4.91742 -7.10925,36.45832 -23.50199,27.27984 -10.84427,-6.07183 -8.72527,-13.7888 -8.72527,-13.7888 0,0 -3.35693,10.33397 0.34072,15.76584 3.69778,5.43188 9.0024,5.64078 16.96272,5.7643 7.96029,0.12347 23.68053,23.19195 16.99955,35.15675 -3.98495,7.1366 13.50286,5.98798 11.88862,2.34992 -3.07397,-6.92755 -3.46804,-18.41518 2.74129,-20.90655 7.75298,-1.95998 33.46725,-1.76331 42.99993,18.52804 9.86804,21.00519 -12.03321,26.13682 -12.03321,26.13682 z"
         style="fill:#fffffc;fill-opacity:1;stroke:none;stroke-width:1.11457407px;stroke-linecap:butt;stroke-linejoin:miter;stroke-opacity:1" />
      <path
         inkscape:transform-center-y="-13.030056"
         inkscape:transform-center-x="-6.7255088"
         sodipodi:nodetypes="ccssccccccsccssscscc"
         inkscape:connector-curvature="0"
         id="path842-6-7-3"
         d="m 127.47925,44.237167 c 0,0 -3.93268,-2.402479 -8.36972,2.093614 -4.43705,4.496119 -4.57979,10.714928 -4.22037,12.470002 0.35941,1.755025 3.57651,9.330918 5.62308,11.532492 2.04655,2.201544 6.01688,1.068532 8.64242,3.62322 2.6256,2.554719 3.6414,4.716521 4.29235,9.032535 0.65093,4.316023 -3.97695,6.784317 -6.37531,8.940402 -1.7153,1.711405 6.19713,-2.068666 9.8602,-0.965803 2.47611,0.715924 3.4851,-0.38688 7.46789,5.325866 3.88868,-1.600069 0,0 3.88868,-1.600069 -5.98144,-2.914275 4.87087,-18.228325 12.8588,-13.006809 5.28423,3.454159 3.94197,7.2911 3.94197,7.2911 0,0 2.06061,-5.120079 0.37574,-8.001348 -1.68495,-2.88128 -4.36579,-3.171709 -8.39551,-3.511157 -4.02965,-0.339491 -11.19361,-12.576461 -7.39177,-18.407352 2.26766,-3.477933 -6.63445,-3.504147 -5.94295,-1.604382 1.31679,3.617536 1.1169,9.452718 -2.1164,10.499261 -3.99706,0.723549 -17.0212,-0.270598 -21.14615,-10.885029 -4.27007,-10.987855 7.00711,-12.826525 7.00711,-12.826525 z"
         style="fill:#fffffc;fill-opacity:1;stroke:none;stroke-width:0.56615067px;stroke-linecap:butt;stroke-linejoin:miter;stroke-opacity:1" />
      <path
         inkscape:transform-center-y="-5.182911"
         inkscape:transform-center-x="-5.378793"
         sodipodi:nodetypes="ccssccccccsccssscscc"
         inkscape:connector-curvature="0"
         id="path842-6-7-3-5"
         d="m 162.99507,16.598618 c 0,0 -1.22137,-2.68771 -5.19037,-1.899107 -3.96902,0.788613 -6.28053,4.034524 -6.72096,5.094291 -0.44043,1.059737 -1.45845,6.233137 -1.16488,8.136216 0.29357,1.903058 2.806,2.729774 3.27959,5.028233 0.4736,2.298496 0.23496,3.809898 -0.97164,6.332295 -1.2066,2.522396 -4.54774,2.167242 -6.59452,2.448128 -1.52476,0.290693 4.02948,1.131228 5.57514,3.032944 1.05544,1.269817 1.9869,1.047866 2.04469,5.508705 2.63706,0.549727 0,0 2.63706,0.549727 -2.12361,-3.695651 9.13615,-7.913499 11.49409,-2.273153 1.55985,3.731234 -0.53131,5.283011 -0.53131,5.283011 0,0 2.93335,-1.973834 3.07593,-4.107249 0.14253,-2.13345 -1.17445,-3.251272 -3.18897,-4.880046 -2.01447,-1.62877 -1.4133,-10.692491 2.69881,-12.41718 2.45274,-1.028724 -2.25776,-4.243179 -2.57414,-2.987304 -0.60244,2.391451 -2.80633,5.413416 -4.8969,4.805835 -2.37939,-1.053426 -8.92741,-6.263067 -7.29828,-13.373904 1.68643,-7.361003 8.32668,-4.281411 8.32668,-4.281411 z"
         style="fill:#fffffc;fill-opacity:1;stroke:none;stroke-width:0.36267927px;stroke-linecap:butt;stroke-linejoin:miter;stroke-opacity:1" />
      <path
         sodipodi:nodetypes="ccssccccccsccssscscc"
         inkscape:connector-curvature="0"
         id="path842-62"
         d="m 44.650597,169.47765 c 0,0 -0.516281,-1.46177 -2.628588,-1.23036 -2.112312,0.23142 -3.469677,1.82399 -3.748438,2.35827 -0.278762,0.5343 -1.047428,3.19423 -0.980699,4.20318 0.06673,1.00895 1.343337,1.55609 1.486198,2.7801 0.142855,1.22403 -0.05096,2.00381 -0.797285,3.2683 -0.746322,1.26449 -2.477983,0.92621 -3.561549,0.97973 -0.810919,0.0825 2.056333,0.77568 2.778137,1.84108 0.494193,0.71245 0.991595,0.63884 0.818251,2.9751 1.354448,0.40793 0,0 1.354448,0.40793 -0.942291,-2.03024 5.140571,-3.72286 6.116678,-0.66462 0.645724,2.02312 -0.519053,2.73948 -0.519053,2.73948 0,0 1.624622,-0.89871 1.796568,-2.00826 0.17193,-1.10958 -0.466035,-1.75445 -1.445547,-2.69846 -0.97951,-0.944 -0.251377,-5.6581 1.978513,-6.37269 1.330056,-0.42622 -0.987462,-2.32276 -1.210282,-1.68022 -0.424298,1.22355 -1.715141,2.70387 -2.781058,2.29061 -1.196665,-0.65967 -4.384397,-3.68383 -3.207636,-7.3294 1.218161,-3.77382 4.551357,-1.85975 4.551357,-1.85975 z"
         style="fill:#fffffc;fill-opacity:1;stroke:none;stroke-width:0.19045024px;stroke-linecap:butt;stroke-linejoin:miter;stroke-opacity:1" />
      <path
         inkscape:transform-center-y="0.74053121"
         inkscape:transform-center-x="3.4286913"
         sodipodi:nodetypes="ccssccccccsccssscscc"
         inkscape:connector-curvature="0"
         id="path842-62-9"
         d="m 63.06807,170.84829 c 0,0 0.5135,-1.03748 -0.710257,-2.04748 -1.223761,-1.01 -2.782896,-0.90718 -3.213995,-0.77817 -0.43111,0.12905 -2.254954,1.10269 -2.760199,1.66378 -0.505236,0.56109 -0.133322,1.52923 -0.714018,2.24304 -0.580712,0.71383 -1.098969,1.01614 -2.164343,1.27515 -1.065373,0.25901 -1.786022,-0.84392 -2.37889,-1.39598 -0.466408,-0.39104 0.655616,1.50445 0.461267,2.44553 -0.123965,0.63546 0.174433,0.86334 -1.16619,1.9871 0.486951,0.93731 0,0 0.486951,0.93731 0.595921,-1.56149 4.669227,0.81269 3.540738,2.92755 -0.746534,1.39906 -1.736441,1.14869 -1.736441,1.14869 0,0 1.326952,0.40152 2.010312,-0.0842 0.683374,-0.48575 0.696308,-1.16299 0.691494,-2.17877 -0.0048,-1.01579 2.897305,-3.08079 4.440882,-2.25945 0.920695,0.4899 0.728959,-1.73798 0.26904,-1.52265 -0.875771,0.41003 -2.340199,0.49 -2.674056,-0.29567 -0.270068,-0.98395 -0.311436,-4.26474 2.252419,-5.53324 2.654047,-1.31311 3.365279,1.46749 3.365279,1.46749 z"
         style="fill:#fffffc;fill-opacity:1;stroke:none;stroke-width:0.14221141px;stroke-linecap:butt;stroke-linejoin:miter;stroke-opacity:1" />
      <path
         inkscape:transform-center-y="-1.8398294"
         inkscape:transform-center-x="1.8073533"
         sodipodi:nodetypes="ccssccccccsccssscscc"
         inkscape:connector-curvature="0"
         id="path842-62-9-1"
         d="m 70.228173,179.75848 c 0,0 0.709314,-0.29382 0.539249,-1.33234 -0.170066,-1.03853 -0.993398,-1.66787 -1.264963,-1.79166 -0.271591,-0.12377 -1.607251,-0.43389 -2.104463,-0.37433 -0.497215,0.0596 -0.734177,0.70532 -1.335737,0.80819 -0.601578,0.10289 -0.992313,0.0276 -1.637306,-0.30822 -0.644994,-0.3358 -0.523299,-1.20108 -0.578295,-1.73554 -0.06215,-0.39885 -0.329456,1.03736 -0.837336,1.42238 -0.33932,0.26315 -0.289821,0.5072 -1.449767,0.483 -0.166074,0.68057 0,0 -0.166074,0.68057 0.979232,-0.51947 1.976459,2.4442 0.489742,3.00744 -0.983511,0.37261 -1.36845,-0.18456 -1.36845,-0.18456 0,0 0.48723,0.77978 1.04044,0.83564 0.553262,0.0558 0.855378,-0.27668 1.296436,-0.78594 0.441052,-0.50927 2.791544,-0.2733 3.203648,0.81066 0.245807,0.64654 1.122704,-0.5495 0.799071,-0.64278 -0.616266,-0.17761 -1.382333,-0.77701 -1.206028,-1.31503 0.294726,-0.60917 1.706365,-2.26527 3.540231,-1.7793 1.898381,0.50306 1.039559,2.20186 1.039559,2.20186 z"
         style="fill:#fffffc;fill-opacity:1;stroke:none;stroke-width:0.09431881px;stroke-linecap:butt;stroke-linejoin:miter;stroke-opacity:1" />
      <path
         inkscape:transform-center-y="-1.6301106"
         inkscape:transform-center-x="0.39319961"
         sodipodi:nodetypes="ccssccccccsccssscscc"
         inkscape:connector-curvature="0"
         id="path842-62-9-1-2"
         d="m 69.466998,188.70076 c 0,0 0.497236,0.2298 0.959538,-0.36181 0.462299,-0.59162 0.393991,-1.32784 0.327515,-1.53011 -0.06649,-0.2023 -0.55006,-1.05274 -0.821838,-1.28465 -0.271788,-0.23191 -0.725046,-0.0437 -1.070026,-0.30942 -0.344989,-0.26568 -0.494557,-0.50699 -0.630496,-1.00768 -0.135957,-0.50068 0.376642,-0.85548 0.630294,-1.1429 0.179077,-0.22555 -0.703357,0.32912 -1.150968,0.24906 -0.302145,-0.0506 -0.406181,0.0934 -0.954664,-0.52655 -0.437219,0.24218 0,0 -0.437219,0.24218 0.746146,0.26216 -0.325476,2.2189 -1.340097,1.71179 -0.671204,-0.33546 -0.56527,-0.80688 -0.56527,-0.80688 0,0 -0.173182,0.63276 0.06517,0.94987 0.238414,0.31711 0.558913,0.31469 1.039341,0.29959 0.480422,-0.0151 1.493853,1.33159 1.124822,2.07211 -0.220107,0.44169 0.831307,0.32287 0.723648,0.10804 -0.205013,-0.40909 -0.261322,-1.10078 0.106099,-1.26863 0.462029,-0.14012 2.013383,-0.20115 2.645773,0.9956 0.654642,1.23884 -0.651661,1.61037 -0.651661,1.61037 z"
         style="fill:#fffffc;fill-opacity:1;stroke:none;stroke-width:0.06729304px;stroke-linecap:butt;stroke-linejoin:miter;stroke-opacity:1" />
      <path
         inkscape:transform-center-y="-0.95784173"
         inkscape:transform-center-x="-1.048324"
         sodipodi:nodetypes="ccssccccccsccssscscc"
         inkscape:connector-curvature="0"
         id="path842-62-9-1-2-7"
         d="m 64.739837,192.87971 c 0,0 0.139916,0.38818 0.701724,0.32294 0.561809,-0.0652 0.92036,-0.4914 0.993627,-0.63407 0.07327,-0.14269 0.273345,-0.85196 0.253845,-1.12038 -0.01948,-0.26843 -0.360245,-0.41182 -0.400321,-0.73739 -0.04012,-0.32554 0.01012,-0.53342 0.206605,-0.87123 0.196485,-0.33783 0.657936,-0.25076 0.946253,-0.26687 0.215663,-0.0233 -0.548629,-0.20293 -0.742562,-0.48526 -0.132764,-0.18875 -0.265027,-0.16834 -0.222869,-0.79044 -0.361203,-0.10622 0,0 -0.361203,-0.10622 0.254276,0.53875 -1.361814,0.99964 -1.626836,0.18735 -0.175325,-0.53735 0.133469,-0.73001 0.133469,-0.73001 0,0 -0.430872,0.24198 -0.474757,0.53756 -0.04385,0.29561 0.127038,0.46616 0.389357,0.71574 0.262329,0.24955 0.07658,1.50549 -0.515693,1.69949 -0.353272,0.11572 0.266791,0.61653 0.324987,0.44514 0.11081,-0.32639 0.451867,-0.72258 0.736277,-0.61442 0.319606,0.17356 1.173223,0.97298 0.866256,1.94527 -0.317766,1.00651 -1.208173,0.50277 -1.208173,0.50277 z"
         style="fill:#fffffc;fill-opacity:1;stroke:none;stroke-width:0.05069019px;stroke-linecap:butt;stroke-linejoin:miter;stroke-opacity:1" />
      <path
         inkscape:transform-center-y="-0.16763145"
         inkscape:transform-center-x="-0.85232212"
         sodipodi:nodetypes="ccssccccccsccssscscc"
         inkscape:connector-curvature="0"
         id="path842-62-9-1-2-7-0"
         d="m 60.414112,192.45291 c 0,0 -0.133384,0.25633 0.166961,0.51455 0.30035,0.25822 0.689957,0.24044 0.798184,0.21042 0.108219,-0.03 0.568341,-0.26382 0.697257,-0.40131 0.128933,-0.13749 0.04094,-0.38098 0.189499,-0.5562 0.148524,-0.17523 0.279398,-0.24806 0.546574,-0.30732 0.267198,-0.0592 0.441484,0.21961 0.586673,0.36038 0.11438,0.1 -0.156035,-0.37877 -0.102784,-0.61266 0.03411,-0.15797 -0.03918,-0.21636 0.301062,-0.49004 -0.116819,-0.23638 0,0 -0.116819,-0.23638 -0.15659,0.3867 -1.161186,-0.22636 -0.868892,-0.74847 0.193358,-0.3454 0.439152,-0.27792 0.439152,-0.27792 0,0 -0.329146,-0.10692 -0.502134,0.0109 -0.172991,0.11778 -0.17964,0.28673 -0.183561,0.54027 -0.0039,0.25353 -0.738606,0.75426 -1.119693,0.5415 -0.22728,-0.12694 -0.190686,0.43007 -0.07483,0.37864 0.220631,-0.0979 0.586511,-0.11048 0.665883,0.0873 0.06241,0.24694 0.05621,1.06592 -0.590033,1.36957 -0.668995,0.31433 -0.832475,-0.38319 -0.832475,-0.38319 z"
         style="fill:#fffffc;fill-opacity:1;stroke:none;stroke-width:0.03549878px;stroke-linecap:butt;stroke-linejoin:miter;stroke-opacity:1" />
      <path
         inkscape:transform-center-y="0.40546733"
         inkscape:transform-center-x="-0.3885158"
         sodipodi:nodetypes="ccssccccccsccssscscc"
         inkscape:connector-curvature="0"
         id="path842-62-9-1-2-7-0-9"
         d="m 58.630771,190.28565 c 0,0 -0.154151,0.061 -0.121025,0.28576 0.03312,0.2248 0.208663,0.36353 0.266851,0.3912 0.05817,0.0277 0.345483,0.0993 0.453028,0.0881 0.107575,-0.0111 0.160936,-0.14973 0.291176,-0.16984 0.130231,-0.0201 0.214329,-0.002 0.352394,0.0722 0.138082,0.0747 0.108808,0.26111 0.118825,0.37669 0.01197,0.0864 0.07473,-0.2228 0.185714,-0.30417 0.07414,-0.0556 0.06433,-0.1085 0.31466,-0.0992 0.03821,-0.14636 0,0 0.03821,-0.14636 -0.213205,0.10875 -0.418194,-0.53454 -0.09528,-0.65097 0.213621,-0.077 0.294784,0.0446 0.294784,0.0446 0,0 -0.102495,-0.17002 -0.221561,-0.18419 -0.119264,-0.0139 -0.185623,0.0567 -0.282615,0.16517 -0.09695,0.10843 -0.603603,0.0493 -0.688803,-0.18614 -0.05081,-0.14043 -0.244284,0.11472 -0.174745,0.13598 0.132444,0.0405 0.295737,0.17254 0.255778,0.28812 -0.06576,0.13048 -0.376252,0.48311 -0.770472,0.37183 -0.408085,-0.11521 -0.216782,-0.47897 -0.216782,-0.47897 z"
         style="fill:#fffffc;fill-opacity:1;stroke:none;stroke-width:0.02036477px;stroke-linecap:butt;stroke-linejoin:miter;stroke-opacity:1" />
      <path
         inkscape:transform-center-y="0.39341204"
         inkscape:transform-center-x="0.40625224"
         sodipodi:nodetypes="ccssccccccsccssscscc"
         inkscape:connector-curvature="0"
         id="path842-62-9-1-2-7-0-9-3"
         d="m 58.74116,187.97166 c 0,0 -0.110606,-0.0479 -0.209135,0.0847 -0.09857,0.13258 -0.07965,0.29415 -0.06397,0.33829 0.01567,0.0441 0.126531,0.22868 0.18757,0.27822 0.06099,0.0496 0.159702,0.006 0.236929,0.0626 0.07727,0.0567 0.111183,0.10923 0.144016,0.21831 0.03256,0.10939 -0.07832,0.19016 -0.132607,0.25472 -0.03828,0.0506 0.152971,-0.0761 0.251856,-0.0609 0.06671,0.01 0.08884,-0.0226 0.21276,0.11075 0.09487,-0.0555 0,0 0.09487,-0.0555 -0.165529,-0.0536 0.05988,-0.4898 0.285732,-0.38362 0.149393,0.0702 0.128594,0.17449 0.128594,0.17449 0,0 0.03471,-0.14009 -0.01919,-0.20859 -0.05416,-0.0685 -0.124583,-0.0663 -0.230111,-0.0607 -0.105601,0.006 -0.335613,-0.28501 -0.258353,-0.44984 0.04608,-0.0983 -0.184559,-0.0666 -0.159737,-0.0199 0.04725,0.089 0.0633,0.24074 -0.01667,0.27961 -0.100899,0.0333 -0.441798,0.0549 -0.587232,-0.20498 -0.150529,-0.26904 0.13484,-0.35766 0.13484,-0.35766 z"
         style="fill:#fffffc;fill-opacity:1;stroke:none;stroke-width:0.01480594px;stroke-linecap:butt;stroke-linejoin:miter;stroke-opacity:1" />
      <path
         inkscape:transform-center-y="-0.67180003"
         inkscape:transform-center-x="-0.038302583"
         sodipodi:nodetypes="ccssccccccsccssscscc"
         inkscape:connector-curvature="0"
         id="path842-62-9-1-2-7-0-9-3-6"
         d="m 60.918491,187.51831 c 0,0 0.111097,-0.0468 0.08348,-0.20962 -0.02757,-0.16289 -0.157342,-0.26098 -0.200066,-0.28019 -0.04269,-0.0192 -0.252672,-0.0668 -0.33067,-0.057 -0.07801,0.01 -0.114796,0.11119 -0.209089,0.12781 -0.0944,0.0166 -0.15579,0.005 -0.257278,-0.047 -0.101522,-0.0522 -0.08316,-0.18809 -0.09224,-0.27195 -0.01007,-0.0626 -0.05085,0.16311 -0.130223,0.22401 -0.05336,0.0413 -0.04513,0.0798 -0.227146,0.0771 -0.02554,0.1069 0,0 -0.02554,0.1069 0.153203,-0.0825 0.312316,0.38204 0.07941,0.4717 -0.154031,0.0593 -0.214963,-0.0278 -0.214963,-0.0278 0,0 0.07717,0.12197 0.163917,0.13042 0.08693,0.008 0.134054,-0.0441 0.203002,-0.1242 0.06871,-0.0804 0.437972,-0.0452 0.503573,0.12457 0.03912,0.10127 0.175755,-0.0872 0.12486,-0.1016 -0.09696,-0.0274 -0.217647,-0.1208 -0.190405,-0.20544 0.04574,-0.0959 0.265936,-0.35704 0.554216,-0.28232 0.298419,0.0774 0.165035,0.34477 0.165035,0.34477 z"
         style="fill:#fffffc;fill-opacity:1;stroke:none;stroke-width:0.01480594px;stroke-linecap:butt;stroke-linejoin:miter;stroke-opacity:1" />
      <path
         inkscape:transform-center-y="2.2699839"
         inkscape:transform-center-x="-6.0989554"
         sodipodi:nodetypes="ccssccccccsccssscscc"
         inkscape:connector-curvature="0"
         id="path842-6-7-3-5-0"
         d="m 198.80424,17.44545 c 0,0 0.84819,-1.979055 -1.52731,-3.730431 -2.37552,-1.751387 -5.26074,-1.40191 -6.04831,-1.11845 -0.78754,0.283444 -4.07583,2.277237 -4.95714,3.370689 -0.88131,1.093443 -0.0921,2.8537 -1.09805,4.238471 -1.00593,1.3848 -1.93771,1.998963 -3.89003,2.588315 -1.9523,0.58936 -3.40288,-1.385747 -4.56013,-2.35074 -0.90597,-0.678848 1.37062,2.727454 1.10537,4.495008 -0.16563,1.192819 0.41173,1.585719 -1.96386,3.80909 0.99971,1.691299 0,0 0.99971,1.691299 0.94799,-2.960624 8.75452,1.034543 6.87367,5.077148 -1.24423,2.674292 -3.10817,2.309953 -3.10817,2.309953 0,0 2.50529,0.610791 3.72507,-0.360822 1.21979,-0.971647 1.17498,-2.230717 1.06272,-4.116809 -0.11223,-1.886058 5.06772,-6.016348 8.01803,-4.647879 1.75976,0.816246 1.17713,-3.301988 0.34485,-2.855305 -1.58484,0.850592 -4.29648,1.148011 -4.99645,-0.277207 -0.60162,-1.799973 -1.01205,-7.88898 3.62067,-10.505571 4.79569,-2.708657 6.39935,2.383264 6.39935,2.383264 z"
         style="fill:#fffffc;fill-opacity:1;stroke:none;stroke-width:0.2645162px;stroke-linecap:butt;stroke-linejoin:miter;stroke-opacity:1" />
      <path
         inkscape:transform-center-y="2.9846147"
         inkscape:transform-center-x="-1.9343558"
         sodipodi:nodetypes="ccssccccccsccssscscc"
         inkscape:connector-curvature="0"
         id="path842-6-7-3-5-0-6"
         d="m 215.39929,37.031976 c 0,0 1.48269,-0.439049 1.36089,-2.555088 -0.12172,-2.116061 -1.63831,-3.550142 -2.15619,-3.855337 -0.51788,-0.305186 -3.12793,-1.207786 -4.13643,-1.193251 -1.0085,0.01453 -1.61921,1.258052 -2.84586,1.337335 -1.22664,0.0794 -1.99342,-0.153897 -3.21461,-0.962427 -1.22117,-0.808519 -0.79508,-2.516067 -0.79263,-3.598195 -0.0403,-0.812026 -0.87851,2.00845 -1.97694,2.672623 -0.73512,0.4556 -0.68743,0.954869 -3.00572,0.661934 -0.47606,1.328217 0,0 -0.47606,1.328217 2.07087,-0.83413 3.44388,5.312311 0.3472,6.127226 -2.04852,0.539091 -2.70215,-0.658048 -2.70215,-0.658048 0,0 0.81162,1.664596 1.90804,1.892986 1.09642,0.228382 1.77163,-0.373897 2.76241,-1.301054 0.99075,-0.927123 5.64914,0.04084 6.24619,2.298884 0.35611,1.346851 2.36462,-0.864083 1.73603,-1.119118 -1.197,-0.485634 -2.60513,-1.847675 -2.13863,-2.888208 0.71872,-1.158078 3.89529,-4.177817 7.46617,-2.817947 3.69653,1.407698 1.61828,4.629473 1.61828,4.629473 z"
         style="fill:#fffffc;fill-opacity:1;stroke:none;stroke-width:0.18996663px;stroke-linecap:butt;stroke-linejoin:miter;stroke-opacity:1" />
      <path
         inkscape:transform-center-y="2.9977246"
         inkscape:transform-center-x="1.4068178"
         sodipodi:nodetypes="ccssccccccsccssscscc"
         inkscape:connector-curvature="0"
         id="path842-6-7-3-5-0-6-2"
         d="m 212.96927,53.926083 c 0,0 0.92768,0.508193 1.89623,-0.570698 0.9686,-1.078866 0.9339,-2.50622 0.83249,-2.904707 -0.10139,-0.398486 -0.92108,-2.100537 -1.41416,-2.583116 -0.49306,-0.482581 -1.39106,-0.179776 -2.02069,-0.737054 -0.62969,-0.557216 -0.88598,-1.041888 -1.08198,-2.024372 -0.19616,-0.982439 0.83828,-1.598524 1.36478,-2.118834 0.37478,-0.410898 -1.39838,0.541434 -2.25016,0.328273 -0.57546,-0.137308 -0.79484,0.126455 -1.76987,-1.140151 -0.87422,0.408989 0,0 -0.87422,0.408989 1.40293,0.603335 -0.91922,4.231976 -2.80718,3.121394 -1.24893,-0.734671 -0.98276,-1.628908 -0.98276,-1.628908 0,0 -0.41693,1.196221 5.5e-4,1.838544 0.41752,0.642326 1.03529,0.679862 1.96287,0.714028 0.92755,0.03417 2.70262,2.762099 1.89416,4.140141 -0.48222,0.821952 1.55903,0.731504 1.37992,0.303444 -0.3411,-0.81513 -0.35847,-2.155123 0.37146,-2.430105 0.90856,-0.209197 3.90537,-0.122381 4.96608,2.266481 1.09806,2.472909 -1.46752,3.016648 -1.46752,3.016648 z"
         style="fill:#fffffc;fill-opacity:1;stroke:none;stroke-width:0.12994571px;stroke-linecap:butt;stroke-linejoin:miter;stroke-opacity:1" />
      <path
         inkscape:transform-center-y="1.2645762"
         inkscape:transform-center-x="1.3393055"
         sodipodi:nodetypes="ccssccccccsccssscscc"
         inkscape:connector-curvature="0"
         id="path842-6-7-3-5-0-6-2-6"
         d="m 204.74441,61.765778 c 0,0 0.29765,0.669028 1.28361,0.481238 0.98599,-0.187747 1.56567,-0.988307 1.677,-1.250284 0.11135,-0.261964 0.37401,-1.543105 0.30493,-2.015706 -0.0691,-0.47259 -0.69059,-0.682573 -0.80352,-1.253589 -0.11298,-0.571009 -0.0508,-0.945421 0.25345,-1.568668 0.30413,-0.623291 1.13223,-0.528582 1.64044,-0.594224 0.37876,-0.06904 -0.99719,-0.288496 -1.37681,-0.763215 -0.25929,-0.317027 -0.49075,-0.263815 -0.4963,-1.370338 -0.65299,-0.141535 0,0 -0.65299,-0.141535 0.51945,0.920793 -2.28157,1.944785 -2.8553,0.541189 -0.37954,-0.928509 0.14218,-1.309274 0.14218,-1.309274 0,0 -0.73143,0.483811 -0.771,1.012658 -0.0395,0.528867 0.28489,0.808702 0.78135,1.216653 0.49643,0.407941 0.32949,2.6548 -0.69382,3.07448 -0.61036,0.250322 0.55163,1.056857 0.63258,0.745999 0.15413,-0.591965 0.70671,-1.337143 1.22402,-1.182347 0.58809,0.265959 2.20191,1.570983 1.78384,3.331445 -0.43276,1.822408 -2.07366,1.045516 -2.07366,1.045516 z"
         style="fill:#fffffc;fill-opacity:1;stroke:none;stroke-width:0.0899569px;stroke-linecap:butt;stroke-linejoin:miter;stroke-opacity:1" />
      <path
         inkscape:transform-center-y="-0.50988638"
         inkscape:transform-center-x="1.3821758"
         sodipodi:nodetypes="ccssccccccsccssscscc"
         inkscape:connector-curvature="0"
         id="path842-6-7-3-5-0-6-2-6-1"
         d="m 196.05286,61.215218 c 0,0 -0.19081,0.449185 0.34889,0.844409 0.53969,0.395258 1.19339,0.313918 1.3717,0.249103 0.17829,-0.0648 0.92214,-0.519108 1.12111,-0.767598 0.19893,-0.248494 0.0188,-0.646871 0.24579,-0.961469 0.22697,-0.314618 0.43773,-0.454496 0.87982,-0.589491 0.44205,-0.135073 0.77229,0.311614 1.03529,0.529492 0.20581,0.153236 -0.31265,-0.617191 -0.25381,-1.018008 0.0367,-0.270488 -0.0945,-0.35912 0.44235,-0.86479 -0.22783,-0.382619 0,0 -0.22783,-0.382619 -0.21271,0.671736 -1.98501,-0.228104 -1.56165,-1.145752 0.28006,-0.607047 0.7028,-0.525822 0.7028,-0.525822 0,0 -0.56829,-0.136604 -0.84405,0.08449 -0.27574,0.221141 -0.26469,0.506454 -0.23787,0.933873 0.0268,0.427401 -1.14425,1.367328 -1.81395,1.059304 -0.39945,-0.183723 -0.2644,0.749268 -0.076,0.647426 0.3586,-0.193948 0.97298,-0.263324 1.13268,0.05919 0.13768,0.407542 0.23512,1.787351 -0.813,2.383781 -1.085,0.617429 -1.45218,-0.535521 -1.45218,-0.535521 z"
         style="fill:#fffffc;fill-opacity:1;stroke:none;stroke-width:0.05995444px;stroke-linecap:butt;stroke-linejoin:miter;stroke-opacity:1" />
      <path
         inkscape:transform-center-y="-0.71913171"
         inkscape:transform-center-x="0.43920897"
         sodipodi:nodetypes="ccssccccccsccssscscc"
         inkscape:connector-curvature="0"
         id="path842-6-7-3-5-0-6-2-6-1-8"
         d="m 191.72091,56.403123 c 0,0 -0.35696,0.09882 -0.33681,0.606104 0.0201,0.507294 0.37721,0.857195 0.49993,0.932502 0.12271,0.0753 0.74394,0.302588 0.98553,0.30341 0.24158,8.35e-4 0.39315,-0.294377 0.68725,-0.308135 0.2941,-0.01378 0.47674,0.04535 0.76575,0.244203 0.28905,0.198793 0.17968,0.605958 0.17448,0.865103 0.006,0.194638 0.21896,-0.477252 0.48485,-0.631622 0.17801,-0.105963 0.16869,-0.225765 0.72266,-0.145706 0.11967,-0.316067 0,0 0.11967,-0.316067 -0.49951,0.190933 -0.8021,-1.286912 -0.057,-1.468866 0.49289,-0.120368 0.64432,0.169121 0.64432,0.169121 0,0 -0.18728,-0.402109 -0.44887,-0.461488 -0.26161,-0.05935 -0.42588,0.08198 -0.66711,0.299805 -0.24124,0.2178 -1.35273,-0.03388 -1.48608,-0.577197 -0.0795,-0.324068 -0.56998,0.196848 -0.42049,0.260661 0.2846,0.121411 0.61601,0.453606 0.49985,0.700811 -0.17706,0.274286 -0.95069,0.983913 -1.80006,0.643011 -0.87927,-0.352891 -0.36781,-1.115598 -0.36781,-1.115598 z"
         style="fill:#fffffc;fill-opacity:1;stroke:none;stroke-width:0.04550172px;stroke-linecap:butt;stroke-linejoin:miter;stroke-opacity:1" />
      <path
         inkscape:transform-center-y="-0.81494306"
         inkscape:transform-center-x="-0.31970768"
         sodipodi:nodetypes="ccssccccccsccssscscc"
         inkscape:connector-curvature="0"
         id="path842-6-7-3-5-0-6-2-6-1-8-7"
         d="m 191.82842,52.213596 c 0,0 -0.26197,-0.118449 -0.50204,0.19408 -0.24009,0.312512 -0.201,0.698628 -0.16524,0.804519 0.0358,0.105883 0.29328,0.550125 0.43695,0.670666 0.14364,0.120543 0.38073,0.01981 0.56295,0.157752 0.18223,0.137926 0.26177,0.263945 0.3353,0.526145 0.0736,0.262184 -0.19396,0.450647 -0.32584,0.602603 -0.0931,0.119053 0.36774,-0.175802 0.60302,-0.135734 0.1588,0.02527 0.21278,-0.05081 0.50335,0.272211 0.22843,-0.129019 0,0 0.22843,-0.129019 -0.39277,-0.134353 0.16115,-1.166023 0.69591,-0.904276 0.35374,0.173144 0.3002,0.421028 0.3002,0.421028 0,0 0.0882,-0.332857 -0.0384,-0.498256 -0.12652,-0.165392 -0.29471,-0.16274 -0.54681,-0.152712 -0.25209,0.01001 -0.78986,-0.692401 -0.5994,-1.08267 0.11363,-0.232762 -0.43773,-0.165845 -0.38028,-0.0535 0.10938,0.213826 0.14195,0.576613 -0.0502,0.666311 -0.24188,0.07558 -1.05586,0.114338 -1.39297,-0.511026 -0.349,-0.647371 0.33501,-0.848055 0.33501,-0.848055 z"
         style="fill:#fffffc;fill-opacity:1;stroke:none;stroke-width:0.0353205px;stroke-linecap:butt;stroke-linejoin:miter;stroke-opacity:1" />
      <path
         inkscape:transform-center-y="0.56855256"
         inkscape:transform-center-x="-0.63680354"
         sodipodi:nodetypes="ccssccccccsccssscscc"
         inkscape:connector-curvature="0"
         id="path842-6-7-3-5-0-6-2-6-1-8-7-9"
         d="m 196.15,51.224948 c 0,0 0.21251,-0.152063 0.0761,-0.483233 -0.1364,-0.331192 -0.45787,-0.476351 -0.55744,-0.496465 -0.0996,-0.02009 -0.56627,-0.01997 -0.72651,0.03811 -0.16025,0.05805 -0.18901,0.290417 -0.38053,0.370872 -0.1915,0.08048 -0.32684,0.08563 -0.56655,0.024 -0.23972,-0.06155 -0.26605,-0.35784 -0.32547,-0.530783 -0.0512,-0.127454 -0.0293,0.369282 -0.16798,0.536085 -0.0922,0.113395 -0.0571,0.190439 -0.44339,0.271854 -0.003,0.238435 0,0 -0.003,0.238435 0.2846,-0.247691 0.84362,0.657942 0.39415,0.959265 -0.29732,0.199325 -0.46788,0.04429 -0.46788,0.04429 0,0 0.22159,0.221 0.40934,0.196786 0.18772,-0.02415 0.26226,-0.157637 0.36922,-0.360471 0.10699,-0.202813 0.90438,-0.305757 1.12454,0.02182 0.1313,0.195408 0.32985,-0.268704 0.2153,-0.274712 -0.21799,-0.01139 -0.51815,-0.151054 -0.50114,-0.343029 0.0514,-0.224482 0.39108,-0.882484 1.03649,-0.862709 0.66812,0.02044 0.51433,0.649816 0.51433,0.649816 z"
         style="fill:#fffffc;fill-opacity:1;stroke:none;stroke-width:0.03210209px;stroke-linecap:butt;stroke-linejoin:miter;stroke-opacity:1" />
    </g>
    <g
       aria-label="Dougal Stewart"
       style="font-style:normal;font-variant:normal;font-weight:normal;font-stretch:normal;font-size:123.95787048px;line-height:1.25;font-family:Roboto;-inkscape-font-specification:Roboto;letter-spacing:0px;word-spacing:0px;fill:#fffffc;fill-opacity:1;stroke:none;stroke-width:0.64561385"
       id="text846">
      <path
         d="M 418.50312,180.56189 V 92.435591 h 24.93683 q 17.37105,0 28.08421,11.197369 10.77368,11.13684 10.77368,30.26315 v 5.26579 q 0,19.12631 -10.83421,30.26315 -10.77368,11.13684 -29.11315,11.13684 z m 11.68157,-78.56314 v 69.06051 h 12.16579 q 14.10263,0 21.24473,-8.71579 7.14211,-8.71579 7.14211,-23.18157 v -5.38684 q 0,-15.19211 -7.14211,-23.48421 -7.1421,-8.2921 -20.15526,-8.2921 z"
         style="font-style:normal;font-variant:normal;font-weight:normal;font-stretch:normal;font-size:123.95787048px;font-family:Roboto;-inkscape-font-specification:Roboto;fill:#fffffc;fill-opacity:1;stroke-width:0.64561385"
         id="path843" />
      <path
         d="m 495.18994,147.15137 q 0,-14.22368 7.98947,-23.72631 7.98948,-9.56316 21.72895,-9.56316 13.73947,0 21.72894,9.38158 7.98947,9.32105 8.17105,23.30263 v 1.99736 q 0,14.22369 -8.05,23.72632 -7.98947,9.50263 -21.72894,9.50263 -13.8,0 -21.85,-9.50263 -7.98947,-9.50263 -7.98947,-23.72632 z m 11.19737,1.3921 q 0,9.74474 4.6,16.88684 4.66052,7.14211 14.0421,7.14211 9.13947,0 13.8,-7.02105 4.66052,-7.08158 4.72105,-16.82632 v -1.57368 q 0,-9.62368 -4.66053,-16.82631 -4.66052,-7.26316 -13.98157,-7.26316 -9.26053,0 -13.92105,7.26316 -4.6,7.20263 -4.6,16.82631 z"
         style="font-style:normal;font-variant:normal;font-weight:normal;font-stretch:normal;font-size:123.95787048px;font-family:Roboto;-inkscape-font-specification:Roboto;fill:#fffffc;fill-opacity:1;stroke-width:0.64561385"
         id="path845" />
      <path
         d="m 609.46361,180.56189 -0.2421,-6.47631 q -6.41579,7.68684 -19.12631,7.68684 -9.62369,0 -15.55526,-5.68948 -5.93158,-5.68947 -5.93158,-18.76315 v -42.24736 h 11.19736 v 42.36841 q 0,8.83684 3.69211,11.86316 3.75263,2.96579 8.35263,2.96579 12.65,0 17.06842,-9.50263 v -47.69473 h 11.25789 v 65.48946 z"
         style="font-style:normal;font-variant:normal;font-weight:normal;font-stretch:normal;font-size:123.95787048px;font-family:Roboto;-inkscape-font-specification:Roboto;fill:#fffffc;fill-opacity:1;stroke-width:0.64561385"
         id="path847" />
      <path
         d="m 662.00044,206.40662 q -5.08421,0 -12.46842,-2.48158 -7.38421,-2.48158 -11.80263,-8.89736 l 5.87105,-6.6579 q 7.26316,8.83684 17.55263,8.83684 7.92895,0 12.65,-4.47894 4.72105,-4.41842 4.72105,-13.01316 v -5.75 q -6.65789,7.8079 -18.33947,7.8079 -11.80263,0 -18.76315,-9.44211 -6.96053,-9.4421 -6.96053,-23.78684 v -1.27105 q 0,-15.01052 6.9,-24.21052 6.96053,-9.2 18.94473,-9.2 12.04474,0 18.70263,8.47369 l 0.54474,-7.26316 h 10.16842 v 64.09735 q 0,13.01316 -7.74737,20.09474 -7.74737,7.1421 -19.97368,7.1421 z m -16.3421,-57.86315 q 0,9.74474 4.05526,16.76579 4.11579,6.96053 13.19473,6.96053 10.65263,0 15.61579,-9.68421 v -29.83947 q -2.11842,-4.05526 -5.87105,-6.71842 -3.75263,-2.72368 -9.62368,-2.72368 -9.13947,0 -13.25526,7.1421 -4.11579,7.08158 -4.11579,16.82631 z"
         style="font-style:normal;font-variant:normal;font-weight:normal;font-stretch:normal;font-size:123.95787048px;font-family:Roboto;-inkscape-font-specification:Roboto;fill:#fffffc;fill-opacity:1;stroke-width:0.64561385"
         id="path849" />
      <path
         d="m 747.282,180.56189 q -1.08947,-2.36053 -1.57368,-6.9 -3.14737,3.32895 -7.86842,5.75 -4.72105,2.36053 -10.77368,2.36053 -10.04737,0 -16.1,-5.62895 -6.05263,-5.62895 -6.05263,-13.8 0,-10.53157 7.98947,-15.97894 7.98947,-5.5079 21.48684,-5.5079 h 11.07631 v -5.20526 q 0,-5.81052 -3.51052,-9.26052 -3.45,-3.51053 -10.28947,-3.51053 -6.35527,0 -10.28948,3.14737 -3.87368,3.08684 -3.87368,7.20263 H 706.3057 q 0,-7.02105 7.08157,-13.19473 7.08158,-6.17369 18.94474,-6.17369 10.65263,0 17.4921,5.44737 6.83947,5.44737 6.83947,16.46315 v 29.41579 q 0,9.07894 2.3,14.40526 v 0.96842 z m -18.58157,-8.59474 q 6.05263,0 10.47105,-3.02631 4.47894,-3.02632 6.29473,-6.71842 v -13.49737 h -10.41052 q -18.88421,0.36316 -18.88421,12.10526 0,4.66053 3.14737,7.92895 3.14737,3.20789 9.38158,3.20789 z"
         style="font-style:normal;font-variant:normal;font-weight:normal;font-stretch:normal;font-size:123.95787048px;font-family:Roboto;-inkscape-font-specification:Roboto;fill:#fffffc;fill-opacity:1;stroke-width:0.64561385"
         id="path851" />
      <path
         d="M 786.56358,87.593487 V 180.56189 H 775.30569 V 87.593487 Z"
         style="font-style:normal;font-variant:normal;font-weight:normal;font-stretch:normal;font-size:123.95787048px;font-family:Roboto;-inkscape-font-specification:Roboto;fill:#fffffc;fill-opacity:1;stroke-width:0.64561385"
         id="path853" />
      <path
         d="m 884.07144,158.28821 q 0,-6.05263 -4.11579,-9.68421 -4.05526,-3.63158 -17.12894,-7.44473 -13.07368,-3.87369 -20.7,-9.80527 -7.56578,-5.9921 -7.56578,-16.16052 0,-10.28947 8.17105,-17.128943 8.23157,-6.839472 21.78947,-6.839472 14.88947,0 22.93946,8.171051 8.11053,8.171054 8.11053,18.460524 h -11.62105 q 0,-7.38421 -4.78158,-12.22631 -4.78158,-4.84211 -14.64736,-4.84211 -9.32106,0 -13.8,4.11579 -4.47895,4.05526 -4.47895,10.16842 0,5.50789 4.72105,9.2 4.78158,3.63158 15.49474,6.65789 15.31315,4.29737 22.3342,10.65263 7.02105,6.29474 7.02105,16.58421 0,10.77368 -8.41315,17.18947 -8.41316,6.41579 -22.33421,6.41579 -8.11052,0 -15.79736,-3.02632 -7.62632,-3.02631 -12.58947,-8.95789 -4.90263,-5.99211 -4.90263,-14.76842 h 11.62105 q 0,9.01842 6.59736,13.13421 6.59737,4.11579 15.07105,4.11579 9.13947,0 14.0421,-3.75263 4.96316,-3.81316 4.96316,-10.22895 z"
         style="font-style:normal;font-variant:normal;font-weight:normal;font-stretch:normal;font-size:123.95787048px;font-family:Roboto;-inkscape-font-specification:Roboto;fill:#fffffc;fill-opacity:1;stroke-width:0.64561385"
         id="path855" />
      <path
         d="m 936.72932,180.56189 q -3.81316,1.21053 -8.65527,1.21053 -6.2342,0 -10.65262,-3.81316 -4.41843,-3.81316 -4.41843,-13.67895 v -40.61315 h -11.9842 v -8.59473 H 913.003 V 99.154011 h 11.19737 v 15.918419 h 12.22631 v 8.59473 h -12.22631 v 40.67368 q 0,5.02368 2.17895,6.41579 2.17895,1.3921 5.02368,1.3921 2.11842,0 5.26579,-0.72631 z"
         style="font-style:normal;font-variant:normal;font-weight:normal;font-stretch:normal;font-size:123.95787048px;font-family:Roboto;-inkscape-font-specification:Roboto;fill:#fffffc;fill-opacity:1;stroke-width:0.64561385"
         id="path857" />
      <path
         d="m 1001.4925,169.12242 q -3.2079,4.8421 -9.07895,8.77631 -5.87106,3.87369 -15.55526,3.87369 -13.67895,0 -21.91053,-8.89737 -8.17105,-8.89737 -8.17105,-22.75789 v -2.54211 q 0,-10.71315 4.05526,-18.21841 4.11579,-7.56579 10.65263,-11.5 6.53685,-3.99474 13.92105,-3.99474 14.04211,0 20.45789,9.2 6.47636,9.13947 6.47636,22.87894 v 5.02369 h -44.3053 q 0.24211,9.01842 5.32632,15.37368 5.14474,6.29473 14.10263,6.29473 5.93158,0 10.04736,-2.42105 4.11579,-2.42105 7.20264,-6.47631 z M 975.40565,123.0619 q -6.65789,0 -11.25789,4.84211 -4.6,4.8421 -5.75,13.92105 h 32.74473 v -0.84737 q -0.42368,-6.53684 -3.81315,-12.22632 -3.32895,-5.68947 -11.92369,-5.68947 z"
         style="font-style:normal;font-variant:normal;font-weight:normal;font-stretch:normal;font-size:123.95787048px;font-family:Roboto;-inkscape-font-specification:Roboto;fill:#fffffc;fill-opacity:1;stroke-width:0.64561385"
         id="path859" />
      <path
         d="m 1097.2451,115.07243 -19.0053,65.48946 h -9.0789 l -15.9184,-49.57104 -15.4948,49.57104 h -9.1394 l -19.0053,-65.48946 h 11.1974 l 12.8921,48.90525 15.2526,-48.90525 h 9.0184 l 15.4947,49.9342 12.65,-49.9342 z"
         style="font-style:normal;font-variant:normal;font-weight:normal;font-stretch:normal;font-size:123.95787048px;font-family:Roboto;-inkscape-font-specification:Roboto;fill:#fffffc;fill-opacity:1;stroke-width:0.64561385"
         id="path861" />
      <path
         d="m 1149.1767,180.56189 q -1.0895,-2.36053 -1.5737,-6.9 -3.1474,3.32895 -7.8684,5.75 -4.7211,2.36053 -10.7737,2.36053 -10.0474,0 -16.1,-5.62895 -6.0527,-5.62895 -6.0527,-13.8 0,-10.53157 7.9895,-15.97894 7.9895,-5.5079 21.4869,-5.5079 h 11.0763 v -5.20526 q 0,-5.81052 -3.5106,-9.26052 -3.45,-3.51053 -10.2894,-3.51053 -6.3553,0 -10.2895,3.14737 -3.8737,3.08684 -3.8737,7.20263 h -11.1974 q 0,-7.02105 7.0816,-13.19473 7.0816,-6.17369 18.9448,-6.17369 10.6526,0 17.4921,5.44737 6.8394,5.44737 6.8394,16.46315 v 29.41579 q 0,9.07894 2.3,14.40526 v 0.96842 z m -18.5816,-8.59474 q 6.0526,0 10.471,-3.02631 4.479,-3.02632 6.2948,-6.71842 v -13.49737 h -10.4106 q -18.8842,0.36316 -18.8842,12.10526 0,4.66053 3.1474,7.92895 3.1474,3.20789 9.3816,3.20789 z"
         style="font-style:normal;font-variant:normal;font-weight:normal;font-stretch:normal;font-size:123.95787048px;font-family:Roboto;-inkscape-font-specification:Roboto;fill:#fffffc;fill-opacity:1;stroke-width:0.64561385"
         id="path863" />
      <path
         d="m 1202.4398,124.63558 q -10.9552,0 -14.95,9.44211 v 46.4842 h -11.1974 v -65.48946 h 10.8948 l 0.2421,7.50526 q 5.3868,-8.71579 15.5552,-8.71579 3.1474,0 4.9632,0.84737 l -0.061,10.41053 q -2.4816,-0.48422 -5.4474,-0.48422 z"
         style="font-style:normal;font-variant:normal;font-weight:normal;font-stretch:normal;font-size:123.95787048px;font-family:Roboto;-inkscape-font-specification:Roboto;fill:#fffffc;fill-opacity:1;stroke-width:0.64561385"
         id="path865" />
      <path
         d="m 1249.2872,180.56189 q -3.8132,1.21053 -8.6553,1.21053 -6.2342,0 -10.6526,-3.81316 -4.4184,-3.81316 -4.4184,-13.67895 v -40.61315 h -11.9842 v -8.59473 h 11.9842 V 99.154011 h 11.1973 v 15.918419 h 12.2263 v 8.59473 h -12.2263 v 40.67368 q 0,5.02368 2.179,6.41579 2.1789,1.3921 5.0237,1.3921 2.1184,0 5.2658,-0.72631 z"
         style="font-style:normal;font-variant:normal;font-weight:normal;font-stretch:normal;font-size:123.95787048px;font-family:Roboto;-inkscape-font-specification:Roboto;fill:#fffffc;fill-opacity:1;stroke-width:0.64561385"
         id="path867" />
    </g>
    <flowRoot
       xml:space="preserve"
       id="flowRoot848"
       style="font-style:normal;font-weight:normal;font-size:40px;line-height:1.25;font-family:sans-serif;letter-spacing:0px;word-spacing:0px;fill:#000000;fill-opacity:1;stroke:none"><flowRegion
         id="flowRegion850"><rect
           id="rect852"
           width="5897.1431"
           height="1794.2858"
           x="-440"
           y="-744.34198" /></flowRegion><flowPara
         id="flowPara854" /></flowRoot>  </g>
</svg>
