<svg xmlns="http://www.w3.org/2000/svg">
	<symbol id="github-icon" viewBox="0 0 64 64">
		<title>Github icon</title>
		<path d="M 31.997053,0.79000021 C 14.326775,0.79000021 0,15.116472 0,32.790306 c 0,14.137889 9.1681138,26.130639 21.884035,30.363951 1.601033,0.292699 2.184476,-0.695402 2.184476,-1.54403 0,-0.758263 -0.02751,-2.771787 -0.04321,-5.441426 -8.90095,1.932983 -10.77897,-4.290282 -10.77897,-4.290282 C 11.79067,48.181492 9.6926312,47.19732 9.6926312,47.19732 6.7872015,45.213262 9.912651,45.25255 9.912651,45.25255 c 3.211884,0.225907 4.901315,3.298252 4.901315,3.298252 2.854355,4.889426 7.490469,3.477012 9.313486,2.657851 0.290738,-2.066563 1.115811,-3.477011 2.031247,-4.276529 -7.105437,-0.807374 -14.576262,-3.553625 -14.576262,-15.815499 0,-3.492729 1.24743,-6.348987 3.294393,-8.586454 -0.330029,-0.80934 -1.428159,-4.06241 0.312348,-8.468589 0,0 2.687375,-0.860413 8.800761,3.280572 2.551829,-0.711118 5.29028,-1.064712 8.01105,-1.076499 2.716842,0.01179 5.455293,0.365381 8.011051,1.076499 6.109456,-4.140985 8.790938,-3.280572 8.790938,-3.280572 1.746401,4.406179 0.64827,7.659249 0.318241,8.468589 2.050892,2.237467 3.290464,5.093725 3.290464,8.586454 0,12.293304 -7.482612,14.998303 -14.611622,15.789963 1.149207,0.988099 2.17269,2.940728 2.17269,5.926637 0,4.27653 -0.03929,7.728005 -0.03929,8.777002 0,0.856485 0.575586,1.852444 2.200192,1.540102 C 54.839742,58.909158 64,46.924267 64,32.790306 64,15.116472 49.671259,0.79000021 31.997053,0.79000021" />
	</symbol>
	<symbol id="twitter-icon" viewBox="0 0 400 400">
		<title>Twitter icon</title>
		<path transform="matrix(1.6006403,0,0,1.6006398,-120.20808,-120.12796)" d="m 153.6,301.6 c 94.3,0 145.9,-78.2 145.9,-145.9 0,-2.2 0,-4.4 -0.1,-6.6 10,-7.2 18.7,-16.3 25.6,-26.6 -9.2,4.1 -19.1,6.8 -29.5,8.1 10.6,-6.3 18.7,-16.4 22.6,-28.4 -9.9,5.9 -20.9,10.1 -32.6,12.4 -9.4,-10 -22.7,-16.2 -37.4,-16.2 -28.3,0 -51.3,23 -51.3,51.3 0,4 0.5,7.9 1.3,11.7 -42.6,-2.1 -80.4,-22.6 -105.7,-53.6 -4.4,7.6 -6.9,16.4 -6.9,25.8 0,17.8 9.1,33.5 22.8,42.7 -8.4,-0.3 -16.3,-2.6 -23.2,-6.4 0,0.2 0,0.4 0,0.7 0,24.8 17.7,45.6 41.1,50.3 -4.3,1.2 -8.8,1.8 -13.5,1.8 -3.3,0 -6.5,-0.3 -9.6,-0.9 6.5,20.4 25.5,35.2 47.9,35.6 -17.6,13.8 -39.7,22 -63.7,22 -4.1,0 -8.2,-0.2 -12.2,-0.7 22.6,14.4 49.6,22.9 78.5,22.9" />
	</symbol>
	<symbol id="soundcloud-icon" viewBox="0 0 24 24">
		<title>Soundcloud icon</title>
		<path d="M1.175 12.225c-.051 0-.094.046-.101.1l-.233 2.154.233 2.105c.007.058.05.098.101.098.05 0 .09-.04.099-.098l.255-2.105-.27-2.154c0-.057-.045-.1-.09-.1m-.899.828c-.06 0-.091.037-.104.094L0 14.479l.165 1.308c0 .055.045.094.09.094s.089-.045.104-.104l.21-1.319-.21-1.334c0-.061-.044-.09-.09-.09m1.83-1.229c-.061 0-.12.045-.12.104l-.21 2.563.225 2.458c0 .06.045.12.119.12.061 0 .105-.061.121-.12l.254-2.474-.254-2.548c-.016-.06-.061-.12-.121-.12m.945-.089c-.075 0-.135.06-.15.135l-.193 2.64.21 2.544c.016.077.075.138.149.138.075 0 .135-.061.15-.15l.24-2.532-.24-2.623c0-.075-.06-.135-.135-.135l-.031-.017zm1.155.36c-.005-.09-.075-.149-.159-.149-.09 0-.158.06-.164.149l-.217 2.43.2 2.563c0 .09.075.157.159.157.074 0 .148-.068.148-.158l.227-2.563-.227-2.444.033.015zm.809-1.709c-.101 0-.18.09-.18.181l-.21 3.957.187 2.563c0 .09.08.164.18.164.094 0 .174-.09.18-.18l.209-2.563-.209-3.972c-.008-.104-.088-.18-.18-.18m.959-.914c-.105 0-.195.09-.203.194l-.18 4.872.165 2.548c0 .12.09.209.195.209.104 0 .194-.089.21-.209l.193-2.548-.192-4.856c-.016-.12-.105-.21-.21-.21m.989-.449c-.121 0-.211.089-.225.209l-.165 5.275.165 2.52c.014.119.104.225.225.225.119 0 .225-.105.225-.225l.195-2.52-.196-5.275c0-.12-.105-.225-.225-.225m1.245.045c0-.135-.105-.24-.24-.24-.119 0-.24.105-.24.24l-.149 5.441.149 2.503c.016.135.121.24.256.24s.24-.105.24-.24l.164-2.503-.164-5.456-.016.015zm.749-.134c-.135 0-.255.119-.255.254l-.15 5.322.15 2.473c0 .15.12.255.255.255s.255-.12.255-.27l.15-2.474-.165-5.307c0-.148-.12-.27-.271-.27m1.005.166c-.164 0-.284.135-.284.285l-.103 5.143.135 2.474c0 .149.119.277.284.277.149 0 .271-.12.284-.285l.121-2.443-.135-5.112c-.012-.164-.135-.285-.285-.285m1.184-.945c-.045-.029-.105-.044-.165-.044s-.119.015-.165.044c-.09.054-.149.15-.149.255v.061l-.104 6.048.115 2.449v.008c.008.06.03.135.074.18.058.061.142.104.234.104.08 0 .158-.044.209-.09.058-.06.091-.135.091-.225l.015-.24.117-2.203-.135-6.086c0-.104-.061-.193-.135-.239l-.002-.022zm1.006-.547c-.045-.045-.09-.061-.15-.061-.074 0-.149.016-.209.061-.075.061-.119.15-.119.24v.029l-.137 6.609.076 1.215.061 1.185c0 .164.148.314.328.314.181 0 .33-.15.33-.329l.15-2.414-.15-6.637c0-.12-.074-.221-.165-.277m8.934 3.777c-.405 0-.795.086-1.139.232-.24-2.654-2.46-4.736-5.188-4.736-.659 0-1.305.135-1.889.359-.225.09-.27.18-.285.359v9.368c.016.18.15.33.33.345h8.185C22.681 17.218 24 15.914 24 14.28s-1.319-2.952-2.938-2.952" />
	</symbol>
</svg>
