<svg xmlns="http://www.w3.org/2000/svg" viewBox="0 0 400 400">
  <path d="m 125.792,362.5105 c 150.944,0 233.504,-125.05612 233.504,-233.50422 0,-3.552 0,-7.088 -0.24,-10.60801 A 166.976,166.97615 0 0 0 400,75.918236 163.808,163.80815 0 0 1 352.864,88.830248 82.352,82.352076 0 0 0 388.944,43.438206 164.464,164.46415 0 0 1 336.832,63.358225 82.144,82.144076 0 0 0 196.976,138.20629 232.992,232.99221 0 0 1 27.84,52.462215 82.128,82.128076 0 0 0 53.248,162.01432 81.456,81.456075 0 0 1 16,151.74231 c 0,0.336 0,0.688 0,1.04 a 82.096,82.096076 0 0 0 65.84,80.44807 81.936,81.936075 0 0 1 -37.056,1.408 82.16,82.160076 0 0 0 76.672,56.99205 A 164.672,164.67215 0 0 1 19.536,326.83047 167.056,167.05615 0 0 1 0,325.64647 232.336,232.33621 0 0 0 125.792,362.4465" fill="#1da1f2" />
</svg>
